<?xml version="1.0" encoding="utf-8"?>
<!-- Generator: Adobe Illustrator 23.0.4, SVG Export Plug-In . SVG Version: 6.00 Build 0)  -->
<svg version="1.1" id="Ebene_1" xmlns="http://www.w3.org/2000/svg" xmlns:xlink="http://www.w3.org/1999/xlink" x="0px" y="0px"
	 viewBox="0 0 1918.5 428.6" style="enable-background:new 0 0 1918.5 428.6;" xml:space="preserve">
<style type="text/css">
	.st0{fill:#22258B;}
	.st1{fill:#FFFFFF;}
</style>
<path vector-effect="none" class="st0" d="M105.5,109.9c3.7-0.9,3.9,5.3,7.2,6c3.2,0.7,10.4-1.8,11.1-5.3c3,0.3,2,3.5,3.9,4.4
	c0.8,0.4,6.9-1.3,8.8-1c1.7,0.2,3.9,1.5,5.2,1.6c1.4,0.1,2.7-0.9,4.3-0.7c3.6,0.4,13.2,6.7,15.9,9c3.4,2.9,13.3,15.1,15.9,17.6
	c2.9,2.8,10.3,12.7,12.3,15c3.4,4.1,2.4,5.4-0.2,9.6c-2.4,3.8-6.7,7.8-8.6,11.4c-1.8,3.5-0.6,6.9-0.4,10.6c0.3,4.6-1.9,6.1,2.6,7.1
	c2,0.4,13.3-3.4,16.1-2.8c1.8,0.4,2.2,2.9,4.6,1.7c-1.7,3.3-2.2,16.9-1.3,18.6c0.8,1.4,3,4.1,4.1,5.6c0.6,0.8,2.1,0.2,2.6,1
	c0.9,1.5,3.6,8.2,4.3,9.1c3.6,4.1,10.2,9.9,15.8,12.3c9,3.9,18.4,6.7,27.6,10c8,3,16.1,5.9,24.1,8.9c8.7,3.2,17.3,2.4,26.5,2.4
	c-20.9,21.9-41.3,43.9-60.8,67.1c-2,3.9-22.2,1-27.2,2.6c-3.5,1.1-14,8.6-16.1,10.9c-4.5,4.9-11.2,2.2-16.7,4.5
	c-1.9,0.8-7.5,4.9-9.5,5c-6.5,0.1-9.4,1.5-14.4-3.6c-4.5-4.5-20,4.2-23.5,8.3c-1.4,1.6-3.4,6.4-5,7.2c-1,0.5-15.7-0.4-18.3-4.3
	c-1.1,0.6-10,0.4-13.4-1.5c-7.8-4.4-15.4-14.4-23.6-16.6c-9.4-2.5-18,3.6-22.4-8.2c-1.1-3.1,2.1-9.7,0.8-11.6
	c-1.1-1.7-9.1-1-9.3-1.1c-1.6-0.7-3.9-4.5-5.5-6.6c-2.4-3.2-7.9-22.9-11.5-26.1c-1.8-1.6-20-19.9-25.6-20.8
	c-8.4-1.3-2.7-13.1-2.2-14c1.6-2.6,10.9,0.9,15.1-1.2c8.4-4.2,2.5-17,3.5-25.3c0.6-4.8,4.1-18,4.3-20.8c0.4-5.7,8.2-13.6,10-4.7
	c1-0.9,3.5-11.9,4-14.1c0.5-2.1,1.4-7.9,1.8-9c1.2-3.8,4.1-5.5,6-9.2c1.9-3.7,15.3-11.3,16.6-17.2c0.2-0.8,2.9-11.6,4.9-16.3
	c2-4.6-0.2-13.4,3.8-16.6c2.7-2.2,6.6,1,8.5,0.5c2.7-0.7,2.9-5.6,6.7-4c1.8,0.7,4.1,6.2,5.1,7.9c2.7-5.6,4.7-11.9,6.9-17.8
	C101.9,107.3,103.4,109.5,105.5,109.9"/>
<g>
	<path class="st1" d="M200.5,174.7l-68.7,77.5l-40.2,95.4l50.2,77.6L34.1,345.7l17.4-139L157,98.4L123-3.4l98.2,71.9L200.5,174.7z
		 M230.2,290.3l3.2-126.2L137.5,294L125.4,354l45.4,58.1l47.4-4.5l-30.5-18.5l-1.4-26.5L230.2,290.3z"/>
</g>
<g>
	<path class="st1" d="M382.7,176.4l2.9,12.6l5.6,9.8l9.2,5.5l10.8,1.5l10-0.7l8.9-2.6l5.6-6.8l3.5-9.8l-3.9-9.3l-8.7-6.2l-12.5-3.4
		L401,161l-14.3-3.9l-11.4-8.5l-7.9-10.6l-3.5-14.1l2.1-15.6l10.4-10.6l14.9-5.5l18.2-2.7l15.6,2l12.2,4.3l8.5,7.3l6,8.7l2.5,10
		l2.7,9.9l-22.3-0.5l-3.2-10.4l-5.5-7.4l-7.5-4.2l-9-2.4l-8.9,0l-7.1,4.6l-6.8,4l-2.1,8.6l4.9,8.6l7.9,7l12.3,3.9l13.3,6l13.7,5.3
		l12.4,6.6l7.5,10.9l5,13.8l-5.4,17l-10.3,11.9l-14.8,8.8l-19.8,2.4l-19-3.1l-16.3-10l-11.4-15.6l-5.1-21.7L382.7,176.4z"/>
	<path class="st1" d="M501.4,91.7l-0.1,45.8l25.8-12.1l13.4,1.6l10.7,6.2l6.4,10.2l1.4,12.1l0.4,33.5l-1.1,32.9l-20.9,0.3l-0.2-30.7
		l-1.4-31l0.1-7.6l-4.2-4.3l-3.7-3.9l-5.4-1.6l-7.8,2l-6.1,5.6l-5.7,6.2l-3.1,8.5l0.5,28.4l0,27.8l-20.8,0.4l0.2-32.4l-0.3-32.6
		l0.9-32.6l-1.3-32.8L501.4,91.7z"/>
	<path class="st1" d="M665.8,220l-5.1,2.8l-3.8,1l-2.7,1.1l-2,0.5l-6.5-1.5l-4.6-3.9l-3.9-4.5l-2.5-6.4l-8,7.7l-7.3,4.6l-7.1,3.4
		l-7.7-0.4l-12.3-1l-9.3-6.7l-6.1-9.1l-2.6-11.4l1.6-9.9l7.2-6.6l9.6-4.3l10.4-4.2l10.6-3.1l9.2-3.7l6.7-3.9l2.4-5.6l-1-5.6
		l-4.7-2.7l-5.2-2.2l-5.8,0l-5.6,0.9l-4.9,2.5l-4.4,3.9l-2,5.6l-22.5,1.3l4.9-14.4l8.6-10l11.6-7.2l14-1.5l14.8,0.8l12,6.3l8.4,9.3
		l3.6,13.5l-0.9,46.4l2.5,2.8l3,2.6l2.1,0l4.8-2.7L665.8,220z M631.5,176.9l-5.2,2.5l-7.6,1.7l-7.9,2.9l-7.1,3.3l-5.3,3.4l-2.7,4.8
		l1.2,4.9l1.8,4.1l3.9,1.8l4.1,0.4l12.6-5.3l12.6-12.4L631.5,176.9z"/>
	<path class="st1" d="M692.7,188.2l1.7,8.6l3.4,5.7l5.6,2.5l6.3,0.5l6.1-0.2l5.5-1.1l3.5-3.6l2.3-5.2l-2.1-4.8l-4.6-3.5l-6.7-1.9
		l-6.9-3.5l-12-3.5l-10.2-6.7l-7.4-8.4l-3.1-11.2l1.8-12l8-8l11.3-4.1l13.7-2l14.6,2l11.6,5.2l7.4,9.6l3.5,13.4l-21.8-0.7l-2.1-5
		l-3.1-4.1l-4.8-1.6l-5.4-0.5l-9.7,2.3l-4,5.7l1.2,4.9l5.4,2.5l5.8,4.2l7.5,2.6l12.1,3.1l10.5,6.2l8.5,7.3l2.2,10.9l-3.2,13.7
		l-8.3,9.7l-13,4.5l-15,3.1l-14.4-3.5l-11.7-6.8l-9.2-10.4l-3.1-16L692.7,188.2z"/>
	<path class="st1" d="M785.6,91.7l-0.1,45.8l25.8-12.1l13.4,1.6l10.7,6.2l6.4,10.2l1.4,12.1l0.4,33.5l-1.1,32.9l-20.9,0.3l-0.2-30.7
		l-1.4-31l0.1-7.6l-4.2-4.3l-3.7-3.9l-5.4-1.6l-7.8,2l-6.1,5.6l-5.7,6.2l-3.1,8.5l0.5,28.4l0,27.8l-20.8,0.4l0.2-32.4l-0.3-32.6
		l0.9-32.6L763,91.8L785.6,91.7z"/>
	<path class="st1" d="M962,126.9l22.6,0l-0.3,10.6l11.5-9.9l12-3.5l6.6,1.1l5.8,3.4l6,4.9l5.3,9.9l7.5-8.7l7.1-5.4l7-4.2l7.6,0.5
		l13.6,1.3l9.4,8.3l5.8,10.8l2.5,12.9l1.3,31.9l-0.9,31.9l-21-0.7l-0.2-30.7l0.2-31.4l-1.7-7.8l-3-5.1l-4.5-2.4l-4.8-1.6l-6.5,2.9
		l-6.3,4l-3.7,7l-1.5,8.2l0.1,28.8l-0.9,28.6l-20.8-0.5l-1.6-30.8l1.8-31.4l-1.4-8l-4.5-3.9l-3.4-3l-4,0.4l-8,0.8l-6.5,5.3l-3.7,7.3
		l-2.8,7.1l1.8,28.4l-1.6,28l-20.7-0.2l-1.3-31.2l0.1-31.8L962,126.9z"/>
	<path class="st1" d="M1199.6,220l-5.1,2.8l-3.8,1l-2.7,1.1l-2,0.5l-6.5-1.5l-4.6-3.9l-3.9-4.5l-2.5-6.4l-8,7.7l-7.3,4.6l-7.1,3.4
		l-7.7-0.4l-12.3-1l-9.3-6.7l-6.1-9.1l-2.6-11.4l1.6-9.9l7.2-6.6l9.6-4.3l10.4-4.2l10.6-3.1l9.2-3.7l6.7-3.9l2.4-5.6l-1-5.6
		l-4.7-2.7l-5.2-2.2l-5.8,0l-5.6,0.9l-4.9,2.5l-4.4,3.9l-2,5.6l-22.5,1.3l4.9-14.4l8.6-10l11.6-7.2l14-1.5l14.8,0.8l12,6.3l8.4,9.3
		l3.6,13.5l-0.9,46.4l2.5,2.8l3,2.6l2.1,0l4.8-2.7L1199.6,220z M1165.4,176.9l-5.2,2.5l-7.6,1.7l-7.9,2.9l-7.1,3.3l-5.3,3.4
		l-2.7,4.8l1.2,4.9l1.8,4.1l3.9,1.8l4.1,0.4l12.6-5.3l12.6-12.4L1165.4,176.9z"/>
	<path class="st1" d="M949.2,220l-5.1,2.8l-3.8,1l-2.7,1.1l-2,0.5l-6.5-1.5l-4.6-3.9l-3.9-4.5l-2.5-6.4l-8,7.7l-7.3,4.6l-7.1,3.4
		l-7.7-0.4l-12.3-1l-9.3-6.7l-6.1-9.1l-2.6-11.4l1.6-9.9l7.2-6.6l9.6-4.3l10.4-4.2l10.6-3.1l9.2-3.7l6.7-3.9l2.4-5.6l-1-5.6
		l-4.7-2.7l-5.2-2.2l-5.8,0l-5.6,0.9l-4.9,2.5l-4.4,3.9l-2,5.6l-22.5,1.3l4.9-14.4l8.6-10l11.6-7.2l14-1.5l14.8,0.8l12,6.3l8.4,9.3
		l3.6,13.5l-0.9,46.4l2.5,2.8l3,2.6l2.1,0l4.8-2.7L949.2,220z M915,176.9l-5.2,2.5l-7.6,1.7l-7.9,2.9l-7.1,3.3l-5.3,3.4l-2.7,4.8
		l1.2,4.9l1.8,4.1l3.9,1.8l4.1,0.4l12.6-5.3l12.6-12.4L915,176.9z"/>
	<path class="st1" d="M1210,127l22.4,0l-0.2,11.6l12.8-10.6l14.1-3.6l13.3,2.5l9.5,6.8l6.5,9.4l1.2,12.5l0.4,33.5l0.2,33.4
		l-22.9,0.6l0.8-32.2l-1-31.7l0-6.4l-2.4-5.1l-4.4-2.9l-5.3-0.1l-8.5,1.2l-7.9,4.3l-4.9,7.5l-2.1,8.4l0.4,28.3l0,28l-21.5,0.1
		l0.7-31.6l-1-31.8L1210,127z"/>
	<path class="st1" d="M1328.1,181.1l2.5,9.3l4.5,8.4l7.1,5l8.1,1.6l13-4l9-12.7l20.3-0.3l-6.6,14.9l-9.5,11.3l-12.4,7.1l-14,3.5
		l-18.5-5.1l-14.9-10.3l-8.2-16.8l-2.7-19.4l2.9-18.2l8.1-16l14.6-10.1l18.6-3l17.7,3.2l13.4,9.8l9,14.4l2.9,18.3l0.4,8.5l-32.7-0.7
		L1328.1,181.1z M1371.2,163.6l-2.5-7.7l-4.3-6.6l-6.9-3.6l-8.2-1l-7.5,1.3l-6.7,3.7l-4.4,6.6l-2.7,8.3L1371.2,163.6z"/>
	<path class="st1" d="M382.7,364.3l2.9,12.6l5.6,9.8l9.2,5.5l10.8,1.5l10-0.7l8.9-2.6l5.6-6.8l3.5-9.8l-3.9-9.3l-8.7-6.2l-12.5-3.4
		L401,349l-14.3-3.9l-11.4-8.5l-7.9-10.6l-3.5-14.1l2.1-15.6l10.4-10.6l14.9-5.5l18.2-2.7l15.6,2l12.2,4.3l8.5,7.3l6,8.7l2.5,10
		l2.7,9.9l-22.3-0.5l-3.2-10.4l-5.5-7.4l-7.5-4.2l-9-2.4l-8.9,0l-7.1,4.6l-6.8,4l-2.1,8.6l4.9,8.6l7.9,7l12.3,3.9l13.3,6l13.7,5.3
		l12.4,6.6l7.5,10.9l5,13.8l-5.4,17l-10.3,11.9l-14.8,8.8l-19.8,2.4l-19-3.1l-16.3-10l-11.4-15.6l-5.1-21.7L382.7,364.3z"/>
	<path class="st1" d="M534.7,349.5l-7.2-13.7l-11-4.5l-8.8,3l-6.2,6.7l-4.3,9.2l-2.2,11.2l1.8,12.1l3.4,11l7.1,7.4l9,2.7l6.4-2.7
		l5.8-3.9l2.8-7.3l3.2-7.9l22.8,0.4l-4.6,16l-8,13.1l-13,7.3l-16,1.8l-13.1-1.6l-10.5-5.6l-8.4-7.9l-5.6-10.5l-3.6-11.8l-0.4-12.5
		L476,342l9.2-15l13.5-10.4l18.1-3.7l15.7,2.7l11.5,8.2l7.7,11.6l5.8,14.2L534.7,349.5z"/>
	<path class="st1" d="M594.7,279.6l-0.1,45.8l25.8-12.1l13.4,1.6l10.7,6.2l6.4,10.2l1.4,12.1l0.4,33.5l-1.1,32.9l-20.9,0.3
		l-0.2-30.7l-1.4-31l0.1-7.6l-4.2-4.3l-3.7-3.9l-5.4-1.6l-7.8,2l-6.1,5.6l-5.7,6.2l-3.1,8.5l0.5,28.4l0,27.8l-20.8,0.4l0.2-32.4
		l-0.3-32.6l0.9-32.6l-1.3-32.8L594.7,279.6z"/>
	<path class="st1" d="M666.9,362.9l3.1-19.2l9.1-15.7l13.8-11.2l19.3-4.4l19.3,4.3l13.8,11.3l9.1,15.7l2.1,19.2l-2.6,19.1l-8.5,15.7
		l-13.6,11.6l-19.4,2.9l-19.5-2.9l-13.7-11.5l-8.3-15.9L666.9,362.9z M689.9,362.9l1.4,12l4.1,10l7.5,6.2l9.2,2l9.1-2.1l7.6-6.1
		l4.3-10l2.6-12l-2-12l-4.8-9.9l-7.8-5.8l-9-3.4l-9,3.4l-7.7,5.9l-4.9,9.8L689.9,362.9z"/>
	<path class="st1" d="M766.3,362.9l3.1-19.2l9.1-15.7l13.8-11.2l19.3-4.4l19.3,4.3l13.8,11.3l9.1,15.7l2.1,19.2l-2.6,19.1l-8.5,15.7
		l-13.6,11.6l-19.4,2.9l-19.5-2.9l-13.7-11.5l-8.3-15.9L766.3,362.9z M789.3,362.9l1.4,12l4.1,10l7.5,6.2l9.2,2l9.1-2.1l7.6-6.1
		l4.3-10l2.6-12l-2-12l-4.8-9.9l-7.8-5.8l-9-3.4l-9,3.4L795,341l-4.9,9.8L789.3,362.9z"/>
	<path class="st1" d="M893.8,279.6l-0.1,32.9l-0.5,32.6l0.8,32.6l0.3,33.3l-23.8-0.2l0.8-33.1l-0.4-32.6l1.3-32.6l-0.6-32.4
		L893.8,279.6z"/>
	<path class="st1" d="M970.1,314.8l0-17.8l2.3-8.2l4.5-7.1l7.8-4.9l10.3-1.1l3.6,1.1l4.6,0.2l5.3,2.8l7,2l0.3,17.1l-7.1-1.1
		l-4.6-2.6l-3.2,1l-1.3-1.4l-2.7-0.2l-2.3,1.6l-0.5,2.8l-1.5,2.5l-0.8,14.8l17.7-0.5l-0.2,17.2l-17.1,0.5L992,372l0.3,38.3
		l-20.7-0.5l-1.3-37.8l0.5-38.5l-15.6,0.4l-0.1-19L970.1,314.8z"/>
	<path class="st1" d="M1013.1,362.9l3.1-19.2l9.1-15.7l13.8-11.2l19.3-4.4l19.3,4.3l13.8,11.3l9.1,15.7l2.1,19.2l-2.6,19.1
		l-8.5,15.7l-13.6,11.6l-19.4,2.9l-19.5-2.9l-13.7-11.5l-8.3-15.9L1013.1,362.9z M1036.2,362.9l1.4,12l4.2,10l7.5,6.2l9.2,2l9.1-2.1
		l7.6-6.1l4.3-10l2.6-12l-2-12l-4.8-9.9l-7.8-5.8l-9-3.4l-9,3.4l-7.7,5.9l-4.9,9.8L1036.2,362.9z"/>
	<path class="st1" d="M1117.8,315l16.8-0.1l3.4,12l8.8-10.6l10.4-4l5.6,1l8.7,4.3l0.3,19l-5.9-2.7l-4.2-0.7l-2.6-0.2l-1.3,1
		l-7.5,0.7l-4.7,5.2l-4.2,6l-1.7,7.9l0.2,28.3l0.8,28.7l-22.5-0.4l0.9-31.7l-0.4-31.8L1117.8,315z"/>
	<path class="st1" d="M1256.1,288.6L1256,315l17,0.3l0.6,18.4l-16.8-0.1l-0.3,51.6l0.9,6.6l5.1,2.3l4.2,0.8l8-3.3l0.2,17.4l-10.6,4
		l-8.6-0.7l-9-0.6l-6.5-6.2l-4.3-8.1l-2.1-10l-1.2-27.1l0.9-27.1l-12.5-0.7l-0.4-16.9l13.6,0l-0.6-26.4L1256.1,288.6z"/>
	<path class="st1" d="M1309.8,279.6l-0.1,45.8l25.8-12.1l13.4,1.6l10.7,6.2l6.4,10.2l1.4,12.1l0.4,33.5l-1.1,32.9l-20.9,0.3
		l-0.2-30.7l-1.4-31l0.1-7.6l-4.2-4.3l-3.7-3.9l-5.4-1.6l-7.8,2l-6.1,5.6l-5.7,6.2l-3.1,8.5l0.5,28.4l0,27.8l-20.8,0.4l0.2-32.4
		l-0.3-32.6l0.9-32.6l-1.3-32.8L1309.8,279.6z"/>
	<path class="st1" d="M1404.8,369l2.5,9.3l4.5,8.3l7.1,5l8.1,1.6l13-4l9-12.7l20.3-0.3l-6.6,14.9l-9.5,11.3l-12.4,7.1l-14,3.5
		l-18.5-5.1l-14.9-10.3l-8.2-16.8l-2.7-19.4l2.9-18.2l8.1-16l14.6-10.1l18.6-3l17.7,3.2l13.4,9.8l9,14.4l2.9,18.3l0.4,8.5l-32.7-0.7
		L1404.8,369z M1447.9,351.5l-2.5-7.7l-4.3-6.6l-6.9-3.6l-8.2-1l-7.5,1.3l-6.7,3.7l-4.4,6.6l-2.7,8.3L1447.9,351.5z"/>
	<path class="st1" d="M1539.6,279.4l53.1,0.1l16.4,3.1l12.7,6.4l8.3,10.4l2.3,13.1l-4.5,15.2l-10.8,12.8l9.3,6.7l7.1,7.2l4.1,8.6
		l2.7,9.5l-4.7,14.8l-8.1,13.1l-13.9,7.1l-15.3,2.3l-29.2,0.3l-29.9,1l0.7-33.2l1.2-32.6l-0.5-32.6L1539.6,279.4z M1562.4,331.5
		l27.4,0l8.5-1l6.2-4.5l3.7-5.7l1.8-6.4l-3.7-11.1l-14.3-3.9l-30.7-0.9L1562.4,331.5z M1562.4,391.1l30.4-0.1l8.5-0.6l7.3-4.1
		l4.9-6.1l2.4-8.4l-1-8.3l-6-6.5l-8.6-5.8l-12.3-1.2l-26.2,0.4L1562.4,391.1z"/>
	<path class="st1" d="M1679.5,279.6l-0.1,32.9l-0.5,32.6l0.8,32.6l0.3,33.3l-23.8-0.2l0.8-33.1l-0.4-32.6l1.3-32.6l-0.6-32.4
		L1679.5,279.6z"/>
	<path class="st1" d="M1720.7,279.5l-0.1,22.7l-22.2-0.3l-0.6-22.5L1720.7,279.5z M1720.7,314.8l-0.1,32l-0.5,31.8l0.7,32.1
		l-23.7,0.3l0.2-32.5l1-31.8L1698,315L1720.7,314.8z"/>
	<path class="st1" d="M1739.9,314.9l22.4,0l-0.2,11.6l12.8-10.6l14.1-3.6l13.3,2.5l9.5,6.8l6.5,9.4l1.2,12.5l0.4,33.5l0.2,33.4
		l-22.9,0.6l0.8-32.2l-1-31.7l0-6.4l-2.4-5.1l-4.4-2.9l-5.3-0.1l-8.5,1.2l-7.9,4.3l-4.9,7.5l-2.1,8.4l0.4,28.3l0,28l-21.5,0.1
		l0.7-31.6l-1-31.8L1739.9,314.9z"/>
	<path class="st1" d="M1919.8,410.7l-22.6,0l0.3-10.9l-4.6,6.4l-5.6,4.4l-6.3,1.8l-5.9-0.3l-16.7-3.4l-11.5-11.3l-8.1-15.2l-3-19.1
		l1-19.6l8.5-15.5l11.1-11.9l17-2.8l6.4,1.5l6.5,2.3l6.7,3.3l4.4,6.4l1.1-46.4l20.1-0.1l-0.3,32.2l0.6,32.6l-0.1,32.6L1919.8,410.7z
		 M1896.9,361.7l-1.4-11.5l-3.4-9.7l-6.6-5.8l-7.7-1.7l-8,1.9l-6.8,6l-3.4,10.1l-2.6,12l1.8,12.3l4.1,9.9l7.1,5.5l7.8,3.6l7.6-3.7
		l6.9-5.6l4.4-9.8l1-12.4L1896.9,361.7z"/>
</g>
</svg>
