<?xml version="1.0" encoding="utf-8"?>
<!-- Generator: Adobe Illustrator 23.0.4, SVG Export Plug-In . SVG Version: 6.00 Build 0)  -->
<svg version="1.1" id="Ebene_1" xmlns="http://www.w3.org/2000/svg" xmlns:xlink="http://www.w3.org/1999/xlink" x="0px" y="0px"
	 viewBox="0 0 2200.6 428.6" style="enable-background:new 0 0 2200.6 428.6;" xml:space="preserve">
<style type="text/css">
	.st0{display:none;}
	.st1{display:inline;fill:#D98B84;}
	.st2{display:inline;}
	.st3{display:inline;fill:#16010B;}
	.st4{fill:#F8A11D;}
	.st5{fill:#878685;}
	.st6{fill:#74726F;}
	.st7{fill:#D16029;}
</style>
<g class="st0">
	<path class="st1" d="M136.2,297.4l64.9-88c0.1-4.5,0.7-9.9,1.7-11.8c-2.4,1.2-2.8-1.3-4.6-1.7c-2.8-0.5-14,3.3-16.1,2.8
		c-0.4-0.1-0.7-0.2-1-0.3l-50.7,57.2L90.2,351l2.5,3.9c3,2.6,6,5.1,9,6.8c3.4,1.9,12.3,2.1,13.4,1.5c2.2,3.2,12.9,4.4,16.9,4.4
		l-7.9-10.1L136.2,297.4z"/>
	<path class="st1" d="M139.1,118.8c-1.2-0.4-2.7-1.2-3.9-1.3c-1.9-0.3-8,1.4-8.8,1c-1.9-1-0.9-4.2-3.9-4.4
		c-0.8,3.5-7.9,6.1-11.1,5.3c-3.4-0.7-3.5-6.8-7.2-6l0,0c-2.2-0.5-3.6-2.6-4.6-4.6c-2.2,5.9-4.2,12.2-6.9,17.8
		c-1-1.7-3.3-7.1-5.1-7.8c-3.8-1.6-4,3.3-6.7,4c-1.9,0.5-5.8-2.7-8.5-0.5c-4,3.2-1.8,11.9-3.8,16.5c-2,4.7-4.7,15.5-4.9,16.3
		c-1.3,5.9-14.7,13.6-16.6,17.2c-1.9,3.6-4.8,5.3-6,9.2c-0.4,1.1-1.3,6.8-1.8,9s-3,13.2-4,14.1c-1.8-8.9-9.6-1-10,4.7
		c-0.2,2.8-3.8,16-4.3,20.8c-1,8.3,5,21.1-3.5,25.3c-4.2,2.1-13.5-1.3-15.1,1.2c-0.6,0.9-6.3,12.7,2.2,14
		c5.6,0.9,23.8,19.2,25.6,20.8c2.2,2,5.2,10.3,7.7,17L50.2,210L139.1,118.8z"/>
	<path class="st1" d="M280.1,263l-24.1-8.9c-8.6-3.1-17.4-5.8-25.9-9.3l-1.2,48.9l-33.6,55.4c2.7-0.3,5.2-0.9,7.3-3.1
		c2.1-2.3,12.5-9.8,16.1-10.9c5-1.6,25.2,1.3,27.2-2.6c19.6-23.2,40-45.3,60.8-67.1C297.4,265.4,288.8,266.2,280.1,263z"/>
	<path class="st2" d="M144.7,118.3c3.5,0.4,13.2,6.7,15.9,9c3.4,2.9,13.3,15.1,15.9,17.6c2.9,2.8,10.3,12.7,12.3,15
		c3.4,4.1,2.4,5.4-0.2,9.6c-2.4,3.8-6.7,7.8-8.6,11.4c-1.8,3.6-0.6,6.9-0.3,10.6c0.3,4.2-1.5,5.8,1.6,6.8l18-20.3L220,71.8L121.6,0
		l34,101.8l-16.5,16.9c0.5,0.2,0.9,0.3,1.2,0.3C141.8,119.2,143.1,118.2,144.7,118.3z"/>
	<path class="st2" d="M201.5,216.2c0.8,1.4,3,4.1,4.1,5.6c0.6,0.8,2.1,0.2,2.6,1c0.9,1.5,3.6,8.2,4.4,9.1
		c3.5,4.1,10.2,9.9,15.8,12.3c0.6,0.2,1.1,0.5,1.7,0.7l2-77.3l-30.9,41.9C201,212.7,201.1,215.5,201.5,216.2z"/>
	<path class="st2" d="M55.6,336.9c-1.1-3,2.1-9.7,0.8-11.6c-1.1-1.7-9.1-1-9.3-1.1c-1.6-0.7-3.9-4.5-5.5-6.6
		c-0.9-1.2-2.3-4.9-3.8-9.1l-5.1,40.6l107.7,79.5l-47.7-73.8c-4.8-4.1-9.6-8.4-14.6-9.8C68.7,342.6,60.1,348.7,55.6,336.9z"/>
	<path class="st2" d="M176.3,355.4c-6.5,0.1-9.4,1.5-14.4-3.6c-4.5-4.5-20,4.2-23.5,8.3c-1.4,1.6-3.4,6.4-5,7.2
		c-0.2,0.1-0.7,0.1-1.5,0.1l37.5,48l47.4-4.5l-30.5-18.5l-1.4-26.5l10.3-17c-3.1,0.3-6.4,0.1-9.4,1.3
		C183.9,351.3,178.3,355.4,176.3,355.4z"/>
	<path class="st3" d="M130.4,255.6l50.7-57.2c-3.1-1-1.4-2.6-1.6-6.8c-0.2-3.7-1.5-7,0.3-10.6s6.2-7.6,8.6-11.4
		c2.6-4.2,3.7-5.4,0.2-9.6c-2-2.3-9.4-12.2-12.3-15c-2.6-2.5-12.5-14.7-15.9-17.6c-2.6-2.3-12.3-8.6-15.9-9
		c-1.6-0.2-2.9,0.8-4.3,0.7c-0.3,0-0.8-0.2-1.2-0.3l-88.9,91.3l-12.3,98.4c1.6,4.2,2.9,7.9,3.8,9.1c1.6,2.2,4,5.9,5.5,6.6
		c0.1,0.1,8.2-0.6,9.3,1.1c1.2,1.9-2,8.6-0.8,11.6c4.4,11.8,13,5.7,22.4,8.2c5,1.3,9.9,5.6,14.6,9.8l-2.5-3.9L130.4,255.6z"/>
	<path class="st3" d="M230,244.8c-0.6-0.2-1.1-0.5-1.7-0.7c-5.6-2.4-12.3-8.1-15.8-12.3c-0.8-0.9-3.5-7.6-4.4-9.1
		c-0.5-0.8-2-0.2-2.6-1c-1.1-1.5-3.3-4.2-4.1-5.6c-0.4-0.7-0.5-3.5-0.5-6.8l-64.9,88l-12.1,60l7.9,10.1c0.8,0,1.3,0,1.5-0.1
		c1.6-0.7,3.6-5.6,5-7.2c3.5-4.2,19.1-12.8,23.5-8.3c5,5.1,7.9,3.7,14.4,3.6c2-0.1,7.5-4.2,9.5-5c3-1.2,6.3-1,9.4-1.3l33.6-55.4
		L230,244.8z"/>
</g>
<g>
	<path d="M594.1,154.8l2.9,12.6l5.6,9.8l9.2,5.5l10.9,1.6l10-0.7l8.9-2.6l5.6-6.8l3.5-9.8l-3.9-9.3l-8.7-6.2l-12.5-3.4l-13.3-5.9
		l-14.3-3.9l-11.4-8.5l-7.9-10.6l-3.5-14.1l2.1-15.6l10.4-10.6l14.9-5.5l18.2-2.8l15.6,2l12.2,4.3l8.5,7.3l6,8.7l2.5,10l2.7,9.9
		l-22.3-0.6l-3.2-10.3l-5.5-7.4l-7.5-4.2l-9-2.4h-8.9l-7.1,4.6l-6.8,4l-2,8.6l4.9,8.6l7.9,7l12.3,3.9l13.3,5.9l13.7,5.3l12.4,6.6
		l7.5,10.9l5,13.8l-5.4,17l-10.3,11.9l-14.8,8.8l-19.8,2.4l-19-3.1l-16.3-10L576,175.9l-5.1-21.7L594.1,154.8z"/>
	<path d="M712.8,70.1l-0.1,45.8l25.8-12.1l13.4,1.6l10.7,6.2l6.3,10.2l1.4,12.1l0.4,33.4l-1.1,32.9l-20.9,0.3l-0.2-30.7l-1.4-31
		l0.1-7.6l-4.2-4.3l-3.7-3.9l-5.5-1.6l-7.8,2l-6.1,5.6l-5.7,6.2l-3.1,8.5l0.5,28.4v27.8l-20.9,0.4l0.2-32.4l-0.3-32.6l0.9-32.6
		L690.2,70L712.8,70.1z"/>
	<path d="M877.2,198.4l-5.1,2.8l-3.8,1l-2.7,1.1l-2,0.5l-6.5-1.5l-4.5-3.9l-3.9-4.5l-2.5-6.4l-8,7.7l-7.3,4.6l-7.1,3.2l-7.8-0.4
		l-12.2-1l-9.3-6.7l-6.1-9.1l-2.6-11.4l1.6-9.9l7.2-6.6l9.6-4.3l10.4-4.2l10.6-3.1l9.2-3.7l6.7-3.9l2.4-5.6l-1-5.6l-4.7-2.6
		l-5.2-2.2h-5.8l-5.5,0.9l-4.9,2.5L812,130l-2,5.6l-22.5,1.3l4.9-14.4l8.6-10l11.6-7.2l14-1.4l14.8,0.8l12,6.3l8.4,9.3l3.6,13.4
		l-0.9,46.4l2.5,2.8l3,2.6h2.1l4.8-2.7L877.2,198.4z M842.9,155.4l-5.1,2.4l-7.6,1.7l-7.9,2.9l-7.1,3.2l-5.4,3.4l-2.7,4.8l1.2,4.9
		l1.8,4l3.9,1.8l4.1,0.4l12.6-5.3l12.6-12.4L842.9,155.4z"/>
	<path d="M904.1,166.6l1.7,8.6l3.4,5.7l5.6,2.5l6.2,0.5l6.1-0.2l5.5-1.1l3.5-3.6l2.3-5.2l-2.1-4.8l-4.6-3.5l-6.7-1.9l-6.9-3.5
		l-12-3.5l-10.2-6.7l-7.4-8.4l-3.1-11.2l1.8-12l8-8l11.3-4.1l13.7-2l14.6,2l11.6,5.2l7.5,9.6l3.5,13.4l-21.8-0.7l-2.1-5l-3.1-4.1
		l-4.8-1.6l-5.4-0.5l-9.7,2.4l-4,5.7l1.2,4.9l5.4,2.5l5.8,4.2l7.5,2.6l12.1,3.1l10.5,6.2l8.5,7.3l2.2,10.9l-3.2,13.7l-8.3,9.7
		l-13,4.5l-15,3.1l-14.4-3.4l-11.7-6.8l-9.2-10.4l-3.2-16L904.1,166.6z"/>
	<path d="M997,70.1l-0.1,45.8l25.8-12.1l13.4,1.6l10.7,6.2l6.3,10.2l1.4,12.1l0.4,33.4l-1.1,32.9l-20.9,0.3l-0.2-30.7l-1.4-31
		l0.1-7.6l-4.2-4.3l-3.7-3.9l-5.5-1.6l-7.8,2l-6.2,5.6l-5.7,6.2l-3.2,8.5l0.5,28.4v27.8l-20.8,0.4l0.2-32.4l-0.3-32.6l0.9-32.6
		L974.3,70L997,70.1z"/>
	<path d="M1173.4,105.3h22.7l-0.3,10.6l11.5-9.9l12-3.5l6.6,1.1l5.8,3.4l6,4.9l5.3,9.9l7.5-8.7l7.1-5.4l7-4.2l7.6,0.5l13.6,1.3
		l9.4,8.2l5.8,10.8l2.5,12.9l1.3,32l-1,31.9l-21-0.7l-0.2-30.7l0.2-31.4l-1.7-7.8l-3-5.1l-4.5-2.4l-4.8-1.6l-6.5,2.9l-6.2,4l-3.7,7
		l-1.5,8.2l0.1,28.8l-0.9,28.6l-20.8-0.5l-1.5-30.8l1.8-31.4l-1.4-8l-4.5-3.9l-3.4-3l-4,0.4l-8,0.8l-6.5,5.3l-3.7,7.3l-2.8,7.2
		l1.8,28.4l-1.6,28l-20.7-0.2l-1.3-31.1l0.1-31.8L1173.4,105.3z"/>
	<path d="M1411.1,198.4l-5.1,2.8l-3.8,1l-2.7,1.1l-2,0.5l-6.5-1.5l-4.6-3.9l-3.9-4.5l-2.5-6.4l-8,7.7l-7.3,4.6l-7.1,3.3l-7.8-0.4
		l-12.2-1l-9.3-6.7l-6.1-9.1l-2.6-11.4l1.6-9.9l7.2-6.6l9.6-4.3l10.4-4.2l10.6-3.1l9.2-3.7l6.7-3.9l2.4-5.6l-1-5.6l-4.7-2.6
		l-5.2-2.2h-5.8l-5.6,0.9l-4.9,2.5l-4.4,3.9l-2,5.6l-22.5,1.3l4.9-14.4l8.6-10l11.6-7.2l14-1.4l14.8,0.8l12,6.3l8.4,9.3l3.6,13.4
		l-0.9,46.4l2.4,2.8l3,2.6h2.1l4.8-2.7L1411.1,198.4z M1376.8,155.4l-5.2,2.4l-7.6,1.7l-7.9,2.9l-7.1,3.2l-5.3,3.4l-2.7,4.8l1.2,4.9
		l1.8,4l3.9,1.8l4.1,0.4l12.6-5.3l12.6-12.4L1376.8,155.4z"/>
	<path d="M1160.6,198.4l-5.1,2.8l-3.8,1l-2.7,1.1l-2,0.5l-6.5-1.5l-4.6-3.9l-3.9-4.5l-2.5-6.4l-8,7.7l-7.3,4.6l-7.1,3.3l-7.7-0.4
		l-12.3-1l-9.3-6.7l-6.1-9.1l-2.6-11.4l1.6-9.9l7.2-6.6l9.6-4.3l10.4-4.2l10.6-3.1l9.2-3.7l6.7-3.9l2.4-5.6l-1-5.6l-4.7-2.6
		l-5.2-2.2h-5.8l-5.6,0.9l-4.9,2.5l-4.4,3.9l-2,5.6l-22.5,1.3l4.9-14.4l8.7-10l11.6-7.2l14-1.4l14.8,0.8l12,6.3l8.4,9.3l3.6,13.4
		l-0.9,46.4l2.5,2.8l3,2.6h2.1l4.8-2.7L1160.6,198.4z M1126.4,155.4l-5.2,2.4l-7.6,1.7l-7.9,2.9l-7.1,3.2l-5.3,3.4l-2.7,4.8l1.2,4.9
		l1.8,4l3.9,1.8l4.1,0.4l12.6-5.3l12.6-12.4L1126.4,155.4z"/>
	<path d="M1421.4,105.4h22.4l-0.2,11.6l12.8-10.6l14.1-3.6l13.3,2.5l9.5,6.8l6.5,9.4l1.2,12.5l0.4,33.4l0.2,33.4l-22.9,0.6l0.8-32.2
		l-1-31.7v-6.4l-2.4-5.1l-4.4-2.9l-5.3-0.1l-8.5,1.2l-7.9,4.3l-4.9,7.5l-2.1,8.4l0.4,28.3v28l-21.5,0.1l0.7-31.6l-1-31.8
		L1421.4,105.4z"/>
	<path d="M1539.5,159.5l2.6,9.3l4.5,8.4l7.1,5.1l8.1,1.6l13-4l9-12.7l20.3-0.3l-6.6,14.9l-9.5,11.3l-12.4,7.1l-14,3.5l-18.5-5.1
		l-14.9-10.3l-8.2-16.8l-2.7-19.4l2.9-18.2l8.2-16l14.6-10.1l18.6-3l17.7,3.2l13.4,9.8l9,14.4l2.9,18.3l0.4,8.5l-32.7-0.7
		L1539.5,159.5z M1582.6,142l-2.5-7.7l-4.3-6.6l-6.9-3.6l-8.2-1l-7.4,1.3l-6.7,3.7l-4.4,6.6l-2.7,8.3L1582.6,142z"/>
	<path d="M594.1,342.7l2.9,12.6l5.6,9.8l9.2,5.5l10.9,1.5l10-0.7l8.9-2.6l5.6-6.8l3.5-9.8l-3.9-9.3l-8.7-6.2l-12.5-3.4l-13.3-5.9
		l-14.3-3.9l-11.4-8.5l-7.9-10.6l-3.5-14.1l2.1-15.6l10.4-10.6l14.9-5.5l18.2-2.8l15.6,2l12.2,4.3l8.5,7.3l6,8.7l2.5,10l2.7,9.9
		l-22.3-0.5l-3.2-10.4l-5.5-7.4l-7.5-4.2l-9-2.4h-8.9l-7.1,4.6l-6.8,4l-2,8.6l4.9,8.6l7.9,7l12.3,3.9l13.3,6l13.7,5.2l12.4,6.6
		l7.5,10.9l5,13.8l-5.4,17l-10.3,11.9l-14.8,8.9l-19.8,2.4l-19-3.1l-16.3-10L576,363.8l-5.1-21.7L594.1,342.7z"/>
	<path d="M746.1,327.9l-7.2-13.7l-11-4.5l-8.8,3l-6.2,6.7l-4.3,9.2l-2.2,11.1l1.8,12.1l3.4,11l7,7.4l9,2.7l6.4-2.7l5.8-3.9l2.7-7.3
		l3.2-7.9l22.8,0.5l-4.6,16l-8,13.1l-13,7.3l-16,1.8l-13.1-1.6l-10.5-5.6l-8.4-7.9l-5.6-10.5l-3.6-11.7l-0.4-12.5l2.1-19.4l9.2-15
		l13.4-10.4l18.1-3.7l15.7,2.7l11.5,8.2L763,314l5.8,14.2L746.1,327.9z"/>
	<path d="M806.1,258.1l-0.1,45.8l25.8-12.1l13.4,1.6l10.7,6.2l6.3,10.2l1.4,12.1l0.4,33.5l-1.1,32.9l-20.9,0.3l-0.2-30.7l-1.4-31
		l0.1-7.6l-4.3-4.2l-3.7-3.9l-5.5-1.5l-7.8,2l-6.2,5.6l-5.7,6.2l-3.2,8.5l0.5,28.4v27.8l-20.8,0.4l0.2-32.4l-0.3-32.6l0.9-32.6
		l-1.3-32.8L806.1,258.1z"/>
	<path d="M878.3,341.3l3.1-19.2l9.1-15.7l13.8-11.2l19.3-4.4l19.3,4.3l13.8,11.4l9.1,15.7l2.1,19.2l-2.6,19.1l-8.5,15.7l-13.6,11.6
		l-19.4,2.9l-19.5-2.9l-13.7-11.5l-8.3-15.9L878.3,341.3z M901.3,341.3l1.4,12l4.2,10l7.5,6.2l9.2,2l9.1-2.1l7.6-6.1l4.3-10l2.6-12
		l-2-12l-4.8-9.9l-7.8-5.8l-9-3.4l-9,3.4l-7.7,5.9l-4.9,9.8L901.3,341.3z"/>
	<path d="M977.7,341.3l3.1-19.3l9.1-15.7l13.8-11.2l19.3-4.4l19.3,4.3l13.8,11.4l9.1,15.7l2.1,19.2l-2.6,19.1l-8.5,15.7l-13.6,11.6
		l-19.4,2.9l-19.5-2.9L990,376.2l-8.3-15.9L977.7,341.3z M1000.7,341.3l1.4,12l4.2,10l7.5,6.2l9.2,2l9.1-2.1l7.6-6.1l4.3-10l2.6-12
		l-2-12l-4.8-10l-7.8-5.8l-9-3.4l-9,3.4l-7.7,5.9l-5,9.8L1000.7,341.3z"/>
	<path d="M1105.3,258l-0.1,32.9l-0.5,32.6l0.8,32.6l0.3,33.3l-23.8-0.2l0.8-33.1l-0.4-32.6l1.3-32.6l-0.6-32.4L1105.3,258z"/>
	<path d="M1181.6,293.2v-17.8l2.3-8.2l4.5-7.1l7.8-4.9l10.4-1.1l3.5,1.1l4.6,0.2l5.3,2.8l7,2l0.3,17.1l-7.1-1.1l-4.6-2.6l-3.2,1
		l-1.2-1.4l-2.7-0.2l-2.3,1.6l-0.5,2.8l-1.5,2.5l-0.8,14.8l17.7-0.5l-0.2,17.1l-17.1,0.5l-0.2,38.6l0.3,38.3l-20.7-0.5l-1.2-37.8
		l0.5-38.5l-15.6,0.4l-0.1-19L1181.6,293.2z"/>
	<path d="M1224.6,341.3l3.1-19.2l9.1-15.7l13.8-11.2l19.3-4.4l19.3,4.3l13.8,11.4l9.1,15.7l2.1,19.2l-2.6,19.1l-8.5,15.7l-13.6,11.6
		l-19.4,2.9l-19.5-2.9l-13.7-11.5l-8.3-15.9L1224.6,341.3z M1247.6,341.3l1.4,12l4.2,10l7.5,6.2l9.2,2l9.1-2.1l7.6-6.1l4.3-10
		l2.6-12l-2-12l-4.8-9.9l-7.8-5.8l-9-3.4l-9,3.4l-7.7,5.9l-5,9.8L1247.6,341.3z"/>
	<path d="M1329.2,293.4l16.8-0.1l3.4,12l8.8-10.6l10.4-4l5.6,1l8.7,4.3l0.3,19l-5.9-2.7l-4.2-0.7l-2.6-0.2l-1.3,1l-7.5,0.7l-4.7,5.2
		l-4.2,6l-1.7,7.9l0.2,28.3l0.8,28.7l-22.5-0.4l0.9-31.7l-0.3-31.8L1329.2,293.4z"/>
	<path d="M1467.5,267l-0.1,26.3l17,0.3l0.6,18.4l-16.8-0.1l-0.3,51.5l0.9,6.6l5.1,2.3l4.2,0.8l8-3.3l0.2,17.4l-10.6,4l-8.7-0.7
		l-9-0.6l-6.5-6.2l-4.3-8.1l-2.1-10l-1.2-27.1l0.9-27.1l-12.5-0.7l-0.4-16.9h13.6l-0.6-26.4L1467.5,267z"/>
	<path d="M1521.2,258.1l-0.1,45.8l25.8-12.1l13.4,1.6l10.7,6.2l6.4,10.2l1.4,12.1l0.4,33.5l-1.1,32.9l-20.9,0.3l-0.2-30.7l-1.4-31
		l0.1-7.6l-4.2-4.3l-3.7-3.9l-5.4-1.5l-7.8,2l-6.2,5.6l-5.7,6.2l-3.1,8.5l0.5,28.4v27.8l-20.8,0.4l0.2-32.4l-0.3-32.6l0.9-32.6
		l-1.3-32.8H1521.2z"/>
	<path d="M1616.2,347.5l2.6,9.3l4.5,8.4l7.1,5l8.1,1.6l13-4l9-12.7l20.3-0.3l-6.6,14.9l-9.5,11.4l-12.4,7.1l-14,3.5l-18.5-5.2
		l-14.9-10.3l-8.2-16.8L1594,340l2.9-18.2l8.2-16l14.6-10.1l18.6-3l17.7,3.2l13.4,9.8l9,14.4l2.9,18.3l0.4,8.5l-32.7-0.7
		L1616.2,347.5z M1659.3,329.9l-2.5-7.7l-4.3-6.5l-6.9-3.6l-8.2-1l-7.5,1.3l-6.7,3.7l-4.4,6.6l-2.7,8.3L1659.3,329.9z"/>
	<path d="M1751,257.8l53.1,0.1l16.4,3.1l12.7,6.4l8.3,10.4l2.3,13.1l-4.6,15.2l-10.8,12.8l9.3,6.7l7.1,7.1l4.1,8.6l2.7,9.5
		l-4.7,14.8l-8.1,13.1l-13.9,7.1l-15.3,2.3l-29.2,0.3l-29.9,1l0.7-33.2l1.2-32.6l-0.5-32.6L1751,257.8z M1773.8,309.8h27.4l8.5-1
		l6.2-4.5l3.7-5.7l1.8-6.4l-3.7-11.1l-14.3-3.9l-30.7-0.9L1773.8,309.8z M1773.8,369.5l30.4-0.1l8.5-0.6l7.3-4.1l4.9-6.1l2.4-8.4
		l-1-8.3l-6-6.5l-8.6-5.8l-12.3-1.2l-26.2,0.4L1773.8,369.5z"/>
	<path d="M1890.9,258l-0.1,32.9l-0.5,32.6l0.8,32.6l0.3,33.3l-23.8-0.2l0.8-33.1l-0.4-32.6l1.3-32.6l-0.6-32.4L1890.9,258z"/>
	<path d="M1932.1,257.9l-0.1,22.7l-22.2-0.3l-0.6-22.5L1932.1,257.9z M1932.1,293.3v32l-0.5,31.8l0.7,32.1l-23.7,0.3l0.2-32.5
		l1-31.8l-0.4-31.9H1932.1z"/>
	<path d="M1951.4,293.3h22.4l-0.2,11.6l12.8-10.6l14.1-3.5l13.3,2.5l9.6,6.8l6.5,9.4l1.2,12.5l0.4,33.5l0.2,33.4l-22.9,0.6l0.8-32.2
		l-1-31.7V319l-2.4-5.1l-4.4-2.9l-5.3-0.1l-8.6,1.1l-7.9,4.3l-4.9,7.5l-2.1,8.4l0.4,28.3v28l-21.5,0.1l0.7-31.6l-1-31.8
		L1951.4,293.3z"/>
	<path d="M2131.3,389.1h-22.6l0.3-10.9l-4.6,6.4l-5.6,4.4l-6.3,1.8l-5.9-0.3l-16.7-3.4l-11.5-11.4l-8.1-15.2l-3-19.1l1-19.6
		l8.5-15.5l11.1-11.9l16.9-2.8l6.4,1.5l6.5,2.3l6.8,3.3l4.3,6.4l1.1-46.4l20.2-0.1l-0.3,32.2l0.6,32.6l-0.1,32.6L2131.3,389.1z
		 M2108.3,340.2l-1.4-11.5l-3.4-9.6l-6.6-5.8l-7.7-1.7l-8,1.9l-6.8,6l-3.4,10.1l-2.6,12l1.8,12.3l4.1,9.9l7.1,5.5l7.8,3.6l7.6-3.7
		l6.9-5.6l4.4-9.8l1-12.4L2108.3,340.2z"/>
</g>
<circle class="st4" cx="217.5" cy="216.9" r="205.9"/>
<g id="tSv3M9_1_">
	<g>
		<path class="st5" d="M157.2,55.8c4.8,3.8,9.1,6.7,12.8,10.3c4.1,3.9,8,1.9,11.5-0.1c4.1-2.2,7.6-5.3,11.7-0.2
			c0.3,0.4,1.3,0.7,1.6,0.5c6.2-3.7,11.5,1.4,17.1,1.6c15.2,0.6,25.6,8.1,33.4,20.4c1.7,2.7,4.5,4.8,7.1,6.8
			c5,3.8,10.7,6.7,12.8,13.4c0.5,1.7,2.9,2.9,4.6,4c7.1,4.8,8.1,9.3,3.3,16.5c-2.3,3.5-4.9,6.9-7.3,10.4c-0.9,1.2-2.3,2.4-2.5,3.7
			c-0.7,5.5-1.1,11.1-1.5,16.7c4,0.2,7.9,0.7,11.9,0.5c3.6-0.1,7.2-1.4,10.7-1.3c6.2,0.2,8.2,4.4,4.4,9.2c-2.8,3.4-2.9,6.5-0.6,9.8
			c2.2,3.2,4.6,6.2,7,9.3c1.7,2.1,4.2,3.8,5.1,6.1c2.7,6.9,5.3,13.5,14,14.3c14.6,14.8,35.3,18.5,52.6,28.2c8.6,4.8,18,6.7,27.9,5.9
			c3.8-0.3,7.6,0,11.3,0c0.2,0.6,0.5,1.2,0.7,1.8c-3.5,3.6-6.9,7.2-10.4,10.8c-20.4,20.9-40.9,41.8-61.3,62.8
			c-4.2,4.3-8.4,7-14.8,6.9c-9-0.2-16.3,4.6-21.4,11.8c-5.9,8.4-12.8,14.1-23.8,13.3c-1.9-0.1-4.2,0.8-5.8,1.9
			c-9.6,6.5-21,6.5-30.2,0.5c-2.1-1.4-5.7-2-8.1-1.3c-6.3,1.9-12.6,4.3-18.4,7.5c-3.1,1.8-5.4,5.4-7.4,8.6c-2,3.3-4.1,4.4-8.1,3.7
			c-10.6-1.9-21.4-3.1-32.1-4.8c-2.6-0.4-5-1.9-7.3-3.3c-4.4-2.7-8.8-5.3-12.8-8.6c-8.8-7.1-18.2-10.9-29.9-9.8
			c-8.3,0.7-13.5-5.5-13.7-14.2c-0.3-10-0.3-9.9-10.2-10.8c-1.8-0.2-4-1.3-5-2.8c-2.4-3.4-4.8-7-6-11c-3.6-12.1-9-22.4-19.9-29.7
			c-2.6-1.7-3.9-5.9-5.2-9.2c-3.9-9.8-8.9-17.2-21.2-17.7c-7.6-0.3-8.3-2.7-5.2-9.3c4.7-10.2,4.7-10.2,16.1-8.4
			c7.4,1.2,11.4-2.1,11.4-9.6c0-4.8,0.2-9.7-0.5-14.4c-1-6.7,0.8-12.4,3.8-18.2c1.4-2.8,2.3-6.2,2.1-9.3c-0.8-9.7,2-13,11.6-12.1
			c4.6,0.4,4.8-2.6,5.3-5.6c0.6-3.8,1-7.7,1.7-11.5c2.4-12.1,12.1-20.1,17.2-30.8c0.9-1.8,4.3-3.2,6.7-3.4c4.4-0.5,6-2.4,6.9-6.7
			c1.5-7,4.1-13.7,6.2-20.5c1-3.4,2-6.9,2.9-10.3c0.4-1.4-0.1-3.4,0.7-4.4c1.3-1.4,4.4-3.4,4.8-3c6.6,5.7,12.9-10.5,19.3-0.2
			c0.8,1.2,1.9,2.2,3.6,4.2C151.6,68.2,154.1,62.6,157.2,55.8z M170.6,186.1c1.3,1.7,2.6,3.4,4,5.1c-5.2,1.7-10.3,3.7-15.6,5
			c-6.8,1.6-7.2,2.2-4.9,8.8c1.4,4,3.4,7.1,8.3,6.7c3.9-0.4,5.6,2.1,7.9,4.8c3.2,3.9,4.8,8,5.3,13c3.3,35.9,6.8,71.7,10.1,107.6
			c0.4,4.9,0.8,9.1,7.1,9.2c0.3,6.8,5.4,6.2,9.9,6c4.7-0.2,5.8-3.7,6.2-7.5c0.7-8.4,1.3-16.7,2-25.1c0.8-11.1,1.5-22.1,2.5-33.2
			c1.5-16.4,3.9-32.7,4.5-49.2c0.3-9.2,4.1-15,11.5-18.6c4.9-2.4,7.3-5.9,8.8-10.6c2.1-6.6,2-6.7-5.9-7.9c-0.1-3.6-2.6-4-5.4-3.9
			c-3.4,0.2-5.5-1.2-6.1-4.7c12.9-2.7,19.7-12.9,15.4-22c-2.4,1.6-5,3.3-7.5,5c0.7-3.9,1.4-7.8,2.5-13.8c-4.9,6.2-7.9,11.2-12,14.9
			c-3.3,2.9-7.9,4.3-12,6.4c0-1.2,0.1-2.4,0.1-3.6l-0.1,0c11.5-2.5,15.8-12.1,19.9-21.2c2.7-6,5.7-12.7,2-19.7
			c-0.7-3.8-0.8-7.8-2-11.4c-4.5-12.5-11.3-24.6-6-38.8c-0.6-0.2-1.1-0.4-1.7-0.6c-2.7,3.4-5.4,6.8-8,10.2c0-4.7,0-9.3,0-15.5
			c-3.5,6.1-6.3,10.9-9,15.7c-0.7,1.2-1.5,2.5-2.2,3.7c0,0,0.4,0.3,0.4,0.3c-1.7,0.8-3.5,1.6-5.2,2.4c0.7-4.2,1.4-8.4,2.1-12.7
			c-0.7-0.3-1.4-0.6-2.1-0.9c-2.8,5.3-5.7,10.7-8.5,16c-2.4,6.1-4.9,12.2-7.3,18.3c-2.8,5.8-5.6,11.6-8.5,17.3
			c-1.4,2.8-3.2,5.4-4.8,8.1c1.3-9.4,2.5-18.8,3.7-28.3c-10,20.8-14.4,32.4-4.5,50c-3.2,1.2-6.3,2.4-9.7,3.8
			C159,181.2,164.9,183.7,170.6,186.1z"/>
		<path class="st4" d="M220.6,191.7c0.5,3.5,2.6,4.9,6.1,4.7c2.8-0.2,5.3,0.2,5.4,3.9c-2.7,3.7-4.5,9.3-8.1,10.8
			c-8.5,3.5-12.9,9.7-13.7,17.9c-3.7,36.1-6.9,72.3-10,108.5c-0.4,5.2-1.6,8.8-7.5,8.8c-6.3-0.1-6.7-4.3-7.1-9.2
			c-3.3-35.9-6.8-71.7-10.1-107.6c-0.5-5-2.1-9.1-5.3-13c-2.2-2.7-3.9-5.2-7.9-4.8c-4.8,0.4-6.8-2.7-8.3-6.7
			c-2.3-6.5-1.8-7.1,4.9-8.8c5.3-1.3,10.4-3.3,15.6-5c2.3,0,4.7,0,7,0c11.5,0,23,0,34.5,0.1C217.6,191.4,219.1,191.5,220.6,191.7z
			 M193,292.2c0.6-2.5,1.1-3.8,1.1-5.1c0.6-17,1.2-34.1,1.7-51.1c0-1.2,0.3-2.6-0.2-3.5c-0.7-1.4-2-2.5-3.1-3.7
			c-1,1.2-2.3,2.4-3,3.8c-0.5,1-0.3,2.4-0.3,3.5c0.6,17.6,1.3,35.3,2,52.9C191.2,289.6,191.9,290.2,193,292.2z M181.2,230.2
			c-0.9,23,3.3,45.8,4.8,68.7C188.2,282.8,185.6,235.2,181.2,230.2z M202.7,230.2c-3.2,4.7-4.4,31.5-2.2,49
			C205.8,249.9,206.4,237,202.7,230.2z"/>
		<path class="st6" d="M192.7,346.2c5.9-0.1,7-3.6,7.5-8.8c3.1-36.2,6.3-72.4,10-108.5c0.8-8.2,5.2-14.4,13.7-17.9
			c3.6-1.5,5.5-7.1,8.1-10.8c7.9,1.1,8,1.3,5.9,7.9c-1.5,4.7-3.9,8.3-8.8,10.6c-7.4,3.6-11.2,9.4-11.5,18.6
			c-0.6,16.4-3,32.8-4.5,49.2c-1,11-1.6,22.1-2.5,33.2c-0.6,8.4-1.2,16.7-2,25.1c-0.3,3.8-1.5,7.3-6.2,7.5
			C198,352.4,193,353.1,192.7,346.2z"/>
		<path class="st7" d="M179.4,124.3c2.4-6.1,4.9-12.2,7.3-18.3c2.3,0.6,4.7,1.2,7,1.8c1.4,10,2.8,20,4.2,30c1.7,12-0.9,22.8-9,33.3
			c-1.3-6.1-2.4-11.2-3.5-16.2c-2.3-6.1-4.6-12.2-6.9-18.3C178.8,132.5,179.1,128.4,179.4,124.3z"/>
		<path class="st6" d="M211.2,97c2.7-3.4,5.4-6.8,8-10.2c0.6,0.2,1.1,0.4,1.7,0.6c-5.3,14.2,1.5,26.3,6,38.8c1.3,3.6,1.4,7.6,2,11.4
			c-2.1,16.4-10.4,29.5-21.9,40.9l0.1,0c-2.3,0.9-4.6,1.8-7,2.7c-0.2-1.4-0.3-2.9-0.5-4.3c1.2-1.3,2.3-2.7,3.7-3.8
			c19.3-15.8,25.5-33.9,14.4-55.1c-0.8-1.6-1.5-3.3-2.2-4.9C214.1,107.8,212.6,102.4,211.2,97z"/>
		<path class="st6" d="M185.4,154.9c1.1,5.1,2.2,10.1,3.5,16.2c8.1-10.5,10.7-21.4,9-33.3c-1.4-10-2.8-20-4.2-30l0.6,0.1
			c0.5-1.3,1-2.5,1.5-3.8l-0.4-0.1c0,0-0.1-0.4-0.1-0.4c1.7-0.8,3.5-1.6,5.2-2.4c-0.3,3.5-0.5,6.9-0.8,10.4c0.7,8,0.5,16.2,2.4,23.8
			c2.8,11,1.5,20.9-4.5,30.2c-2.6,4-5.7,7.8-8.2,11.9c-0.4,0.7,1,2.5,1.5,3.8c-6.3,5.6-6.3,5.6-11.5,0.3c0.6-4.5,1.3-9.1,1.9-13.6
			c0.2-2.1,0.1-4.3,0.8-6.3C182.8,159.3,184.3,157.1,185.4,154.9z"/>
		<path class="st7" d="M181.3,168c-0.6,4.5-1.3,9.1-1.9,13.6c-1,0.1-1.9,0.3-2.9,0.4c-3-3.1-6-6.2-9-9.2c-0.7-0.5-1.4-1-2.1-1.5
			l0.1,0.1c-10-17.5-5.6-29.2,4.5-50c-1.2,9.4-2.5,18.8-3.8,28.3c0.6,5.8,1.1,11.6,7.7,14.9c0.7-5.3,1.4-10,2-14.7
			C177.7,155.9,179.5,162,181.3,168z"/>
		<path class="st4" d="M199.6,111.6c0.3-3.5,0.5-6.9,0.8-10.4l-0.4-0.3c0.7-1.2,1.5-2.5,2.2-3.7c2.8-4.8,5.5-9.6,9-15.7
			c0,6.2,0,10.9,0,15.5c1.5,5.4,2.9,10.7,4.4,16.1C210.2,112.6,204.9,112.1,199.6,111.6z"/>
		<path class="st6" d="M175.9,149.9c-0.6,4.7-1.3,9.3-2,14.7c-6.6-3.3-7.1-9.1-7.7-14.9c1.6-2.7,3.4-5.3,4.8-8.1
			c2.9-5.7,5.7-11.5,8.5-17.3c-0.3,4.1-0.6,8.2-1,12.3C177.6,141,176.8,145.4,175.9,149.9z"/>
		<path class="st6" d="M220.6,191.7c-1.5-0.1-3-0.3-4.4-0.4c1.1-2.3,2.3-4.6,3.4-7c0.5-0.3,1-0.5,1.6-0.6c1.3-1.1,2.7-2.3,4-3.4
			c0.2-0.6,0.4-1.2,0.6-1.9c1-1.2,2-2.5,2.9-3.7l-0.2,0c2.5-1.7,5-3.4,7.5-5C240.2,178.8,233.4,189,220.6,191.7z"/>
		<path class="st7" d="M207.1,178.6c11.5-11.4,19.8-24.5,21.9-40.9c3.7,7,0.7,13.7-2,19.7C222.9,166.5,218.5,176.1,207.1,178.6z"/>
		<path class="st7" d="M225.7,178.5c-0.2,0.6-0.4,1.2-0.6,1.9c-1.3,1.1-2.7,2.3-4,3.4c-0.6,0.1-1.1,0.3-1.6,0.6
			c-4.4,0.6-9.4,4.6-12.5-2.2c0,0-0.1,0.1-0.1,0.1c4-2.1,8.7-3.5,12-6.4c4.1-3.7,7.1-8.6,12-14.9c-1.1,6-1.8,9.9-2.5,13.8
			c0,0,0.2,0,0.2,0C227.7,176,226.7,177.2,225.7,178.5z"/>
		<path class="st7" d="M170.6,186.1c-5.8-2.5-11.6-4.9-14.9-11c3.4-1.3,6.6-2.5,9.7-3.8l-0.1-0.1c0.1,1.3,0.2,2.5,0.2,3.8
			c1.8,2.3,3.8,4.4,5.2,6.8C171.4,182.9,170.7,184.7,170.6,186.1z"/>
		<path class="st4" d="M193.7,107.8c-2.3-0.6-4.7-1.2-7-1.8c2.8-5.3,5.7-10.7,8.5-16c0.7,0.3,1.4,0.6,2.1,0.9
			c-0.7,4.2-1.4,8.4-2.1,12.7l0.1,0.4l0.4,0.1c-0.5,1.3-1,2.5-1.5,3.8L193.7,107.8z"/>
		<path class="st6" d="M170.6,186.1c0.1-1.4,0.8-3.2,0.2-4.2c-1.4-2.5-3.4-4.6-5.2-6.8c0.6-0.8,1.2-1.6,1.8-2.3c3,3.1,6,6.2,9,9.2
			c1.7,3.1,3.4,6.2,5.2,9.3c-2.3,0-4.7,0-7,0C173.3,189.5,172,187.8,170.6,186.1z"/>
		<path class="st7" d="M200.1,181.3c2.3-0.9,4.6-1.8,7-2.7c0,1.2-0.1,2.4-0.1,3.6l0.1-0.1c-2.4,0-4.9,0-7.3,0l0.1,0.1
			C200,181.9,200.1,181.6,200.1,181.3z"/>
		<path class="st6" d="M202.2,97.2c-0.7,1.2-1.5,2.5-2.2,3.7C200.7,99.7,201.4,98.4,202.2,97.2z"/>
		<path class="st5" d="M200.1,181.3c0,0.3-0.1,0.6-0.3,0.9c-0.4,0.4-0.7,0.8-1.1,1.2c-1,0.8-2.1,1.6-3.1,2.5c0,0,0.5,0.6,0.5,0.6
			c1.1-0.7,2.2-1.5,3.2-2.3c0.2-0.1,0.2-0.5,0.3-0.8c0-0.4,0-0.9,0.1-1.3c2.4,0,4.9,0,7.3,0c3.1,6.8,8.1,2.8,12.5,2.2
			c-1.1,2.3-2.3,4.6-3.4,7c-11.5,0-23,0-34.5-0.1c-1.7-3.1-3.4-6.2-5.2-9.3c1-0.1,1.9-0.3,2.9-0.4c5.1,5.3,5.1,5.3,11.5-0.3
			c2.9-1.4,5.9-2.9,8.8-4.3C199.8,178.4,200,179.8,200.1,181.3z"/>
		<path class="st7" d="M193,292.2c-1.1-1.9-1.8-2.6-1.8-3.3c-0.7-17.6-1.4-35.3-2-52.9c0-1.2-0.2-2.6,0.3-3.5c0.7-1.4,2-2.5,3-3.8
			c1.1,1.2,2.4,2.3,3.1,3.7c0.5,1,0.3,2.3,0.2,3.5c-0.6,17-1.1,34.1-1.7,51.1C194.1,288.3,193.6,289.6,193,292.2z"/>
		<path class="st7" d="M181.2,230.2c4.3,4.9,7,52.5,4.8,68.7C184.5,276,180.3,253.3,181.2,230.2z"/>
		<path class="st7" d="M202.7,230.2c3.7,6.9,3.1,19.8-2.2,49C198.3,261.6,199.5,234.9,202.7,230.2z"/>
		<path class="st5" d="M175.9,149.9c0.8-4.4,1.7-8.9,2.5-13.3c2.3,6.1,4.6,12.2,6.9,18.3c-1.1,2.3-2.6,4.4-3.4,6.8
			c-0.7,2-0.6,4.2-0.8,6.3C179.5,162,177.7,155.9,175.9,149.9z"/>
		<path class="st7" d="M199.6,177c-2.9,1.4-5.9,2.9-8.8,4.3c-0.6-1.3-1.9-3.1-1.5-3.8c2.5-4.1,5.6-7.8,8.2-11.9
			c6-9.4,7.4-19.2,4.5-30.2c-2-7.6-1.7-15.8-2.4-23.8c5.3,0.5,10.6,1.1,16,1.6c0.7,1.6,1.3,3.3,2.2,4.9
			c11.1,21.1,4.9,39.3-14.4,55.1C201.9,174.2,200.8,175.7,199.6,177z"/>
		<path class="st5" d="M194.3,107.9c0.5-1.3,1-2.5,1.5-3.8C195.3,105.3,194.8,106.6,194.3,107.9z"/>
		<path class="st5" d="M167.4,172.7c-0.6,0.8-1.2,1.6-1.8,2.3c-0.1-1.3-0.2-2.5-0.2-3.8C166.1,171.7,166.7,172.2,167.4,172.7z"/>
		<path class="st5" d="M225.7,178.5c1-1.2,2-2.5,2.9-3.7C227.7,176,226.7,177.2,225.7,178.5z"/>
		<path class="st5" d="M221.1,183.8c1.3-1.1,2.7-2.3,4-3.4C223.8,181.5,222.4,182.6,221.1,183.8z"/>
		<path class="st6" d="M199.7,183.4c-0.1,0.3-0.1,0.7-0.3,0.8c-1,0.8-2.1,1.6-3.2,2.3c0,0-0.5-0.6-0.5-0.6c1-0.8,2.1-1.7,3.1-2.5
			c0,0,0.5,0,0.5,0L199.7,183.4z"/>
		<path class="st7" d="M199.7,183.4l-0.5,0l-0.5,0c0.3-0.4,0.7-0.8,1.1-1.2l-0.1-0.1C199.7,182.5,199.6,183,199.7,183.4z"/>
	</g>
</g>
</svg>
