<?xml version="1.0" encoding="utf-8"?>
<!-- Generator: Adobe Illustrator 23.0.4, SVG Export Plug-In . SVG Version: 6.00 Build 0)  -->
<svg version="1.1" id="Ebene_1" xmlns="http://www.w3.org/2000/svg" xmlns:xlink="http://www.w3.org/1999/xlink" x="0px" y="0px"
	 viewBox="0 0 1862 399.7" style="enable-background:new 0 0 1862 399.7;" xml:space="preserve">
<style type="text/css">
	.st0{fill:#D98B84;}
</style>
<g>
	<path d="M324.8,150.9l2.9,12.6l5.6,9.8l9.2,5.5l10.9,1.6l10-0.7l8.9-2.6l5.6-6.8l3.5-9.8l-3.9-9.3l-8.7-6.2l-12.5-3.4l-13.3-5.9
		l-14.3-3.9l-11.4-8.5l-7.9-10.6l-3.5-14.1L308,83l10.4-10.6l14.9-5.5l18.2-2.8l15.6,2l12.2,4.3l8.5,7.3l6,8.7l2.5,10l2.7,9.9
		l-22.3-0.6l-3.2-10.3L368,88l-7.5-4.2l-9-2.4h-8.9l-7.1,4.6l-6.8,4l-2,8.6l4.9,8.6l7.9,7l12.3,3.9l13.3,5.9l13.7,5.3l12.4,6.6
		l7.5,10.9l5,13.8l-5.4,17L388,189.5l-14.8,8.8l-19.8,2.4l-19-3.1l-16.3-10L306.7,172l-5.1-21.7L324.8,150.9z"/>
	<path d="M443.5,66.2l-0.1,45.8l25.8-12.1l13.4,1.6l10.7,6.2l6.3,10.2L501,130l0.4,33.4l-1.1,32.9l-20.9,0.3l-0.2-30.7l-1.4-31
		l0.1-7.6l-4.2-4.3l-3.7-3.9l-5.5-1.6l-7.8,2l-6.1,5.6l-5.7,6.2l-3.1,8.5l0.5,28.4V196l-20.9,0.4l0.2-32.4l-0.3-32.6l0.9-32.6
		l-1.3-32.7L443.5,66.2z"/>
	<path d="M607.9,194.5l-5.1,2.8l-3.8,1l-2.7,1.1l-2,0.5l-6.5-1.5l-4.5-3.9l-3.9-4.5l-2.5-6.4l-8,7.7l-7.3,4.6l-7.1,3.2l-7.8-0.4
		l-12.2-1l-9.3-6.7l-6.1-9.1l-2.6-11.4l1.6-9.9l7.2-6.6l9.6-4.3l10.4-4.2l10.6-3.1l9.2-3.7l6.7-3.9l2.4-5.6l-1-5.6l-4.7-2.6
		l-5.2-2.2h-5.8l-5.5,0.9l-4.9,2.5l-4.4,3.9l-2,5.6l-22.5,1.3l4.9-14.4l8.6-10l11.6-7.2l14-1.4l14.8,0.8l12,6.3l8.4,9.3l3.6,13.4
		l-0.9,46.4l2.5,2.8l3,2.6h2.1l4.8-2.7L607.9,194.5z M573.6,151.5l-5.1,2.4l-7.6,1.7l-7.9,2.9l-7.1,3.2l-5.4,3.4l-2.7,4.8l1.2,4.9
		l1.8,4l3.9,1.8l4.1,0.4l12.6-5.3l12.6-12.4L573.6,151.5z"/>
	<path d="M634.8,162.7l1.7,8.6l3.4,5.7l5.6,2.5l6.2,0.5l6.1-0.2l5.5-1.1l3.5-3.6l2.3-5.2l-2.1-4.8l-4.6-3.5l-6.7-1.9l-6.9-3.5
		l-12-3.5l-10.2-6.7l-7.4-8.4l-3.1-11.2l1.8-12l8-8l11.3-4.1l13.7-2l14.6,2l11.6,5.2l7.5,9.6l3.5,13.4l-21.8-0.7l-2.1-5l-3.1-4.1
		l-4.8-1.6l-5.4-0.5l-9.7,2.4l-4,5.7l1.2,4.9l5.4,2.5l5.8,4.2l7.5,2.6l12.1,3.1l10.5,6.2l8.5,7.3l2.2,10.9l-3.2,13.7l-8.3,9.7
		l-13,4.5l-15,3.1l-14.4-3.4l-11.7-6.8l-9.2-10.4l-3.2-16L634.8,162.7z"/>
	<path d="M727.7,66.2l-0.1,45.8l25.8-12.1l13.4,1.6l10.7,6.2l6.3,10.2l1.4,12.1l0.4,33.4l-1.1,32.9l-20.9,0.3l-0.2-30.7l-1.4-31
		l0.1-7.6l-4.2-4.3l-3.7-3.9l-5.5-1.6l-7.8,2l-6.2,5.6l-5.7,6.2l-3.2,8.5l0.5,28.4V196l-20.8,0.4l0.2-32.4l-0.3-32.6l0.9-32.6
		L705,66.1L727.7,66.2z"/>
	<path d="M904.1,101.4h22.7l-0.3,10.6l11.5-9.9l12-3.5l6.6,1.1l5.8,3.4l6,4.9l5.3,9.9l7.5-8.7l7.1-5.4l7-4.2l7.6,0.5l13.6,1.3
		l9.4,8.2l5.8,10.8l2.5,12.9l1.3,32l-1,31.9l-21-0.7l-0.2-30.7l0.2-31.4l-1.7-7.8l-3-5.1l-4.5-2.4l-4.8-1.6l-6.5,2.9l-6.2,4l-3.7,7
		l-1.5,8.2l0.1,28.8l-0.9,28.6l-20.8-0.5l-1.5-30.8l1.8-31.4l-1.4-8l-4.5-3.9l-3.4-3l-4,0.4l-8,0.8l-6.5,5.3l-3.7,7.3l-2.8,7.2
		l1.8,28.4l-1.6,28l-20.7-0.2l-1.3-31.1l0.1-31.8L904.1,101.4z"/>
	<path d="M1141.8,194.5l-5.1,2.8l-3.8,1l-2.7,1.1l-2,0.5l-6.5-1.5l-4.6-3.9l-3.9-4.5l-2.5-6.4l-8,7.7l-7.3,4.6l-7.1,3.3l-7.8-0.4
		l-12.2-1l-9.3-6.7l-6.1-9.1l-2.6-11.4l1.6-9.9l7.2-6.6l9.6-4.3l10.4-4.2l10.6-3.1l9.2-3.7l6.7-3.9l2.4-5.6l-1-5.6l-4.7-2.6
		l-5.2-2.2h-5.8l-5.6,0.9l-4.9,2.5l-4.4,3.9l-2,5.6l-22.5,1.3l4.9-14.4l8.6-10l11.6-7.2l14-1.4l14.8,0.8l12,6.3l8.4,9.3l3.6,13.4
		l-0.9,46.4l2.4,2.8l3,2.6h2.1l4.8-2.7L1141.8,194.5z M1107.5,151.5l-5.2,2.4l-7.6,1.7l-7.9,2.9l-7.1,3.2l-5.3,3.4l-2.7,4.8l1.2,4.9
		l1.8,4l3.9,1.8l4.1,0.4l12.6-5.3l12.6-12.4L1107.5,151.5z"/>
	<path d="M891.3,194.5l-5.1,2.8l-3.8,1l-2.7,1.1l-2,0.5l-6.5-1.5l-4.6-3.9l-3.9-4.5l-2.5-6.4l-8,7.7l-7.3,4.6l-7.1,3.3l-7.7-0.4
		l-12.3-1l-9.3-6.7l-6.1-9.1l-2.6-11.4l1.6-9.9l7.2-6.6l9.6-4.3l10.4-4.2l10.6-3.1l9.2-3.7l6.7-3.9l2.4-5.6l-1-5.6l-4.7-2.6
		l-5.2-2.2h-5.8l-5.6,0.9l-4.9,2.5l-4.4,3.9l-2,5.6l-22.5,1.3l4.9-14.4l8.7-10l11.6-7.2l14-1.4l14.8,0.8l12,6.3l8.4,9.3l3.6,13.4
		l-0.9,46.4l2.5,2.8l3,2.6h2.1l4.8-2.7L891.3,194.5z M857.1,151.5l-5.2,2.4l-7.6,1.7l-7.9,2.9l-7.1,3.2l-5.3,3.4l-2.7,4.8l1.2,4.9
		l1.8,4l3.9,1.8l4.1,0.4l12.6-5.3l12.6-12.4L857.1,151.5z"/>
	<path d="M1152.1,101.5h22.4l-0.2,11.6l12.8-10.6l14.1-3.6l13.3,2.5l9.5,6.8l6.5,9.4l1.2,12.5l0.4,33.4l0.2,33.4l-22.9,0.6l0.8-32.2
		l-1-31.7v-6.4l-2.4-5.1l-4.4-2.9l-5.3-0.1l-8.5,1.2l-7.9,4.3l-4.9,7.5l-2.1,8.4l0.4,28.3v28l-21.5,0.1l0.7-31.6l-1-31.8
		L1152.1,101.5z"/>
	<path d="M1270.2,155.6l2.6,9.3l4.5,8.4l7.1,5.1l8.1,1.6l13-4l9-12.7l20.3-0.3l-6.6,14.9l-9.5,11.3l-12.4,7.1l-14,3.5l-18.5-5.1
		l-14.9-10.3l-8.2-16.8l-2.7-19.4l2.9-18.2l8.2-16l14.6-10.1l18.6-3l17.7,3.2l13.4,9.8l9,14.4l2.9,18.3l0.4,8.5l-32.7-0.7
		L1270.2,155.6z M1313.3,138.1l-2.5-7.7l-4.3-6.6l-6.9-3.6l-8.2-1l-7.4,1.3l-6.7,3.7l-4.4,6.6l-2.7,8.3L1313.3,138.1z"/>
	<path d="M324.8,338.8l2.9,12.6l5.6,9.8l9.2,5.5l10.9,1.5l10-0.7l8.9-2.6l5.6-6.8l3.5-9.8l-3.9-9.3l-8.7-6.2l-12.5-3.4l-13.3-5.9
		l-14.3-3.9l-11.4-8.5l-7.9-10.6l-3.5-14.1l2.1-15.6l10.4-10.6l14.9-5.5l18.2-2.8l15.6,2l12.2,4.3l8.5,7.3l6,8.7l2.5,10l2.7,9.9
		l-22.3-0.5l-3.2-10.4l-5.5-7.4l-7.5-4.2l-9-2.4h-8.9l-7.1,4.6l-6.8,4l-2,8.6l4.9,8.6l7.9,7l12.3,3.9l13.3,6l13.7,5.2l12.4,6.6
		l7.5,10.9l5,13.8l-5.4,17L388,377.3l-14.8,8.9l-19.8,2.4l-19-3.1l-16.3-10l-11.4-15.6l-5.1-21.7L324.8,338.8z"/>
	<path d="M476.8,324l-7.2-13.7l-11-4.5l-8.8,3l-6.2,6.7l-4.3,9.2l-2.2,11.1l1.8,12.1l3.4,11l7,7.4l9,2.7l6.4-2.7l5.8-3.9l2.7-7.3
		l3.2-7.9l22.8,0.5l-4.6,16l-8,13.1l-13,7.3l-16,1.8l-13.1-1.6l-10.5-5.6l-8.4-7.9l-5.6-10.5l-3.6-11.7l-0.4-12.5l2.1-19.4l9.2-15
		l13.4-10.4l18.1-3.7l15.7,2.7l11.5,8.2l7.7,11.6l5.8,14.2L476.8,324z"/>
	<path d="M536.8,254.2l-0.1,45.8l25.8-12.1l13.4,1.6l10.7,6.2l6.3,10.2l1.4,12.1l0.4,33.5l-1.1,32.9l-20.9,0.3l-0.2-30.7l-1.4-31
		l0.1-7.6l-4.3-4.2l-3.7-3.9l-5.5-1.5l-7.8,2l-6.2,5.6l-5.7,6.2l-3.2,8.5l0.5,28.4v27.8l-20.8,0.4l0.2-32.4l-0.3-32.6l0.9-32.6
		l-1.3-32.8L536.8,254.2z"/>
	<path d="M609,337.4l3.1-19.2l9.1-15.7l13.8-11.2l19.3-4.4l19.3,4.3l13.8,11.4l9.1,15.7l2.1,19.2l-2.6,19.1l-8.5,15.7l-13.6,11.6
		l-19.4,2.9l-19.5-2.9l-13.7-11.5l-8.3-15.9L609,337.4z M632,337.4l1.4,12l4.2,10l7.5,6.2l9.2,2l9.1-2.1l7.6-6.1l4.3-10l2.6-12
		l-2-12l-4.8-9.9l-7.8-5.8l-9-3.4l-9,3.4l-7.7,5.9l-4.9,9.8L632,337.4z"/>
	<path d="M708.4,337.4l3.1-19.3l9.1-15.7l13.8-11.2l19.3-4.4l19.3,4.3l13.8,11.4l9.1,15.7l2.1,19.2l-2.6,19.1l-8.5,15.7l-13.6,11.6
		l-19.4,2.9l-19.5-2.9l-13.7-11.5l-8.3-15.9L708.4,337.4z M731.4,337.4l1.4,12l4.2,10l7.5,6.2l9.2,2l9.1-2.1l7.6-6.1l4.3-10l2.6-12
		l-2-12l-4.8-10l-7.8-5.8l-9-3.4l-9,3.4l-7.7,5.9l-5,9.8L731.4,337.4z"/>
	<path d="M836,254.1l-0.1,32.9l-0.5,32.6l0.8,32.6l0.3,33.3l-23.8-0.2l0.8-33.1l-0.4-32.6l1.3-32.6l-0.6-32.4L836,254.1z"/>
	<path d="M912.3,289.3v-17.8l2.3-8.2l4.5-7.1l7.8-4.9l10.4-1.1l3.5,1.1l4.6,0.2l5.3,2.8l7,2l0.3,17.1l-7.1-1.1l-4.6-2.6l-3.2,1
		l-1.2-1.4l-2.7-0.2l-2.3,1.6l-0.5,2.8l-1.5,2.5l-0.8,14.8l17.7-0.5l-0.2,17.1l-17.1,0.5l-0.2,38.6l0.3,38.3l-20.7-0.5l-1.2-37.8
		l0.5-38.5l-15.6,0.4l-0.1-19L912.3,289.3z"/>
	<path d="M955.3,337.4l3.1-19.2l9.1-15.7l13.8-11.2l19.3-4.4l19.3,4.3l13.8,11.4l9.1,15.7l2.1,19.2l-2.6,19.1l-8.5,15.7l-13.6,11.6
		l-19.4,2.9l-19.5-2.9l-13.7-11.5l-8.3-15.9L955.3,337.4z M978.3,337.4l1.4,12l4.2,10l7.5,6.2l9.2,2l9.1-2.1l7.6-6.1l4.3-10l2.6-12
		l-2-12l-4.8-9.9l-7.8-5.8l-9-3.4l-9,3.4l-7.7,5.9l-5,9.8L978.3,337.4z"/>
	<path d="M1059.9,289.5l16.8-0.1l3.4,12l8.8-10.6l10.4-4l5.6,1l8.7,4.3l0.3,19l-5.9-2.7l-4.2-0.7l-2.6-0.2l-1.3,1l-7.5,0.7l-4.7,5.2
		l-4.2,6l-1.7,7.9l0.2,28.3l0.8,28.7l-22.5-0.4l0.9-31.7l-0.3-31.8L1059.9,289.5z"/>
	<path d="M1198.2,263.1l-0.1,26.3l17,0.3l0.6,18.4l-16.8-0.1l-0.3,51.5l0.9,6.6l5.1,2.3l4.2,0.8l8-3.3l0.2,17.4l-10.6,4l-8.7-0.7
		l-9-0.6l-6.5-6.2l-4.3-8.1l-2.1-10l-1.2-27.1l0.9-27.1l-12.5-0.7l-0.4-16.9h13.6l-0.6-26.4L1198.2,263.1z"/>
	<path d="M1251.9,254.2l-0.1,45.8l25.8-12.1l13.4,1.6l10.7,6.2l6.4,10.2l1.4,12.1l0.4,33.5l-1.1,32.9l-20.9,0.3l-0.2-30.7l-1.4-31
		l0.1-7.6l-4.2-4.3l-3.7-3.9l-5.4-1.5l-7.8,2l-6.2,5.6l-5.7,6.2l-3.1,8.5l0.5,28.4v27.8l-20.8,0.4l0.2-32.4l-0.3-32.6l0.9-32.6
		l-1.3-32.8H1251.9z"/>
	<path d="M1346.9,343.6l2.6,9.3l4.5,8.4l7.1,5l8.1,1.6l13-4l9-12.7l20.3-0.3l-6.6,14.9l-9.5,11.4l-12.4,7.1l-14,3.5l-18.5-5.2
		l-14.9-10.3l-8.2-16.8l-2.7-19.4l2.9-18.2l8.2-16l14.6-10.1l18.6-3l17.7,3.2l13.4,9.8l9,14.4l2.9,18.3l0.4,8.5l-32.7-0.7
		L1346.9,343.6z M1390,326l-2.5-7.7l-4.3-6.5l-6.9-3.6l-8.2-1l-7.5,1.3l-6.7,3.7l-4.4,6.6l-2.7,8.3L1390,326z"/>
	<path d="M1481.7,253.9l53.1,0.1l16.4,3.1l12.7,6.4l8.3,10.4l2.3,13.1l-4.6,15.2l-10.8,12.8l9.3,6.7l7.1,7.1l4.1,8.6l2.7,9.5
		l-4.7,14.8l-8.1,13.1l-13.9,7.1l-15.3,2.3l-29.2,0.3l-29.9,1l0.7-33.2l1.2-32.6l-0.5-32.6L1481.7,253.9z M1504.5,305.9h27.4l8.5-1
		l6.2-4.5l3.7-5.7l1.8-6.4l-3.7-11.1l-14.3-3.9l-30.7-0.9L1504.5,305.9z M1504.5,365.6l30.4-0.1l8.5-0.6l7.3-4.1l4.9-6.1l2.4-8.4
		l-1-8.3l-6-6.5l-8.6-5.8l-12.3-1.2l-26.2,0.4L1504.5,365.6z"/>
	<path d="M1621.6,254.1l-0.1,32.9l-0.5,32.6l0.8,32.6l0.3,33.3l-23.8-0.2l0.8-33.1l-0.4-32.6l1.3-32.6l-0.6-32.4L1621.6,254.1z"/>
	<path d="M1662.8,254l-0.1,22.7l-22.2-0.3l-0.6-22.5L1662.8,254z M1662.8,289.4v32l-0.5,31.8l0.7,32.1l-23.7,0.3l0.2-32.5l1-31.8
		l-0.4-31.9H1662.8z"/>
	<path d="M1682.1,289.4h22.4l-0.2,11.6l12.8-10.6l14.1-3.5l13.3,2.5l9.6,6.8l6.5,9.4l1.2,12.5l0.4,33.5l0.2,33.4l-22.9,0.6l0.8-32.2
		l-1-31.7v-6.6l-2.4-5.1l-4.4-2.9l-5.3-0.1l-8.6,1.1l-7.9,4.3l-4.9,7.5l-2.1,8.4l0.4,28.3v28l-21.5,0.1l0.7-31.6l-1-31.8
		L1682.1,289.4z"/>
	<path d="M1862,385.2h-22.6l0.3-10.9l-4.6,6.4l-5.6,4.4l-6.3,1.8l-5.9-0.3l-16.7-3.4l-11.5-11.4l-8.1-15.2l-3-19.1l1-19.6l8.5-15.5
		l11.1-11.9l16.9-2.8l6.4,1.5l6.5,2.3l6.8,3.3l4.3,6.4l1.1-46.4l20.2-0.1l-0.3,32.2l0.6,32.6l-0.1,32.6L1862,385.2z M1839,336.3
		l-1.4-11.5l-3.4-9.6l-6.6-5.8l-7.7-1.7l-8,1.9l-6.8,6l-3.4,10.1l-2.6,12l1.8,12.3l4.1,9.9l7.1,5.5l7.8,3.6l7.6-3.7l6.9-5.6l4.4-9.8
		l1-12.4L1839,336.3z"/>
</g>
<circle cx="40.1" cy="351.1" r="40.1"/>
<circle cx="40.1" cy="235.1" r="40.1"/>
<circle class="st0" cx="40.1" cy="119.2" r="27"/>
<circle class="st0" cx="154.3" cy="351.1" r="27"/>
<circle class="st0" cx="154.3" cy="235.1" r="27"/>
<circle cx="154.3" cy="119.2" r="40.1"/>
</svg>
