<?xml version="1.0" encoding="utf-8"?>
<!-- Generator: Adobe Illustrator 23.0.4, SVG Export Plug-In . SVG Version: 6.00 Build 0)  -->
<svg version="1.1" id="Ebene_1" xmlns="http://www.w3.org/2000/svg" xmlns:xlink="http://www.w3.org/1999/xlink" x="0px" y="0px"
	 viewBox="0 0 1930.5 428.6" style="enable-background:new 0 0 1930.5 428.6;" xml:space="preserve">
<style type="text/css">
	.st0{fill:#D98B84;}
	.st1{fill:#16010B;}
</style>
<g>
	<path class="st0" d="M136.2,297.4l64.9-88c0.1-4.5,0.7-9.9,1.7-11.8c-2.4,1.2-2.8-1.3-4.6-1.7c-2.8-0.5-14,3.3-16.1,2.8
		c-0.4-0.1-0.7-0.2-1-0.3l-50.7,57.2L90.2,351l2.5,3.9c3,2.6,6,5.1,9,6.8c3.4,1.9,12.3,2.1,13.4,1.5c2.2,3.2,12.9,4.4,16.9,4.4
		l-7.9-10.1L136.2,297.4z"/>
	<path class="st0" d="M139.1,118.8c-1.2-0.4-2.7-1.2-3.9-1.3c-1.9-0.3-8,1.4-8.8,1c-1.9-1-0.9-4.2-3.9-4.4
		c-0.8,3.5-7.9,6.1-11.1,5.3c-3.4-0.7-3.5-6.8-7.2-6l0,0c-2.2-0.5-3.6-2.6-4.6-4.6c-2.2,5.9-4.2,12.2-6.9,17.8
		c-1-1.7-3.3-7.1-5.1-7.8c-3.8-1.6-4,3.3-6.7,4c-1.9,0.5-5.8-2.7-8.5-0.5c-4,3.2-1.8,11.9-3.8,16.5c-2,4.7-4.7,15.5-4.9,16.3
		c-1.3,5.9-14.7,13.6-16.6,17.2c-1.9,3.6-4.8,5.3-6,9.2c-0.4,1.1-1.3,6.8-1.8,9s-3,13.2-4,14.1c-1.8-8.9-9.6-1-10,4.7
		c-0.2,2.8-3.8,16-4.3,20.8c-1,8.3,5,21.1-3.5,25.3c-4.2,2.1-13.5-1.3-15.1,1.2c-0.6,0.9-6.3,12.7,2.2,14
		c5.6,0.9,23.8,19.2,25.6,20.8c2.2,2,5.2,10.3,7.7,17L50.2,210L139.1,118.8z"/>
	<path class="st0" d="M280.1,263l-24.1-8.9c-8.6-3.1-17.4-5.8-25.9-9.3l-1.2,48.9l-33.6,55.4c2.7-0.3,5.2-0.9,7.3-3.1
		c2.1-2.3,12.5-9.8,16.1-10.9c5-1.6,25.2,1.3,27.2-2.6c19.6-23.2,40-45.3,60.8-67.1C297.4,265.4,288.8,266.2,280.1,263z"/>
	<path d="M144.7,118.3c3.5,0.4,13.2,6.7,15.9,9c3.4,2.9,13.3,15.1,15.9,17.6c2.9,2.8,10.3,12.7,12.3,15c3.4,4.1,2.4,5.4-0.2,9.6
		c-2.4,3.8-6.7,7.8-8.6,11.4c-1.8,3.6-0.6,6.9-0.3,10.6c0.3,4.2-1.5,5.8,1.6,6.8l18-20.3L220,71.8L121.6,0l34,101.8l-16.5,16.9
		c0.5,0.2,0.9,0.3,1.2,0.3C141.8,119.2,143.1,118.2,144.7,118.3z"/>
	<path d="M201.5,216.2c0.8,1.4,3,4.1,4.1,5.6c0.6,0.8,2.1,0.2,2.6,1c0.9,1.5,3.6,8.2,4.4,9.1c3.5,4.1,10.2,9.9,15.8,12.3
		c0.6,0.2,1.1,0.5,1.7,0.7l2-77.3l-30.9,41.9C201,212.7,201.1,215.5,201.5,216.2z"/>
	<path d="M55.6,336.9c-1.1-3,2.1-9.7,0.8-11.6c-1.1-1.7-9.1-1-9.3-1.1c-1.6-0.7-3.9-4.5-5.5-6.6c-0.9-1.2-2.3-4.9-3.8-9.1l-5.1,40.6
		l107.7,79.5l-47.7-73.8c-4.8-4.1-9.6-8.4-14.6-9.8C68.7,342.6,60.1,348.7,55.6,336.9z"/>
	<path d="M176.3,355.4c-6.5,0.1-9.4,1.5-14.4-3.6c-4.5-4.5-20,4.2-23.5,8.3c-1.4,1.6-3.4,6.4-5,7.2c-0.2,0.1-0.7,0.1-1.5,0.1
		l37.5,48l47.4-4.5l-30.5-18.5l-1.4-26.5l10.3-17c-3.1,0.3-6.4,0.1-9.4,1.3C183.9,351.3,178.3,355.4,176.3,355.4z"/>
	<path class="st1" d="M130.4,255.6l50.7-57.2c-3.1-1-1.4-2.6-1.6-6.8c-0.2-3.7-1.5-7,0.3-10.6s6.2-7.6,8.6-11.4
		c2.6-4.2,3.7-5.4,0.2-9.6c-2-2.3-9.4-12.2-12.3-15c-2.6-2.5-12.5-14.7-15.9-17.6c-2.6-2.3-12.3-8.6-15.9-9
		c-1.6-0.2-2.9,0.8-4.3,0.7c-0.3,0-0.8-0.2-1.2-0.3l-88.9,91.3l-12.3,98.4c1.6,4.2,2.9,7.9,3.8,9.1c1.6,2.2,4,5.9,5.5,6.6
		c0.1,0.1,8.2-0.6,9.3,1.1c1.2,1.9-2,8.6-0.8,11.6c4.4,11.8,13,5.7,22.4,8.2c5,1.3,9.9,5.6,14.6,9.8l-2.5-3.9L130.4,255.6z"/>
	<path class="st1" d="M230,244.8c-0.6-0.2-1.1-0.5-1.7-0.7c-5.6-2.4-12.3-8.1-15.8-12.3c-0.8-0.9-3.5-7.6-4.4-9.1
		c-0.5-0.8-2-0.2-2.6-1c-1.1-1.5-3.3-4.2-4.1-5.6c-0.4-0.7-0.5-3.5-0.5-6.8l-64.9,88l-12.1,60l7.9,10.1c0.8,0,1.3,0,1.5-0.1
		c1.6-0.7,3.6-5.6,5-7.2c3.5-4.2,19.1-12.8,23.5-8.3c5,5.1,7.9,3.7,14.4,3.6c2-0.1,7.5-4.2,9.5-5c3-1.2,6.3-1,9.4-1.3l33.6-55.4
		L230,244.8z"/>
</g>
<g>
	<path d="M393.3,179.8l2.9,12.6l5.6,9.8l9.2,5.5l10.9,1.6l10-0.7l8.9-2.6l5.6-6.8l3.5-9.8l-3.9-9.3l-8.7-6.2l-12.5-3.4l-13.3-5.9
		l-14.3-3.9l-11.4-8.5l-7.9-10.6l-3.5-14.1l2.1-15.6l10.4-10.6l14.9-5.5L420,93l15.6,2l12.2,4.3l8.5,7.3l6,8.7l2.5,10l2.7,9.9
		l-22.3-0.6l-3.2-10.3l-5.5-7.4l-7.5-4.2l-9-2.4h-8.9l-7.1,4.6l-6.8,4l-2,8.6l4.9,8.6l7.9,7l12.3,3.9l13.3,5.9l13.7,5.3l12.4,6.6
		l7.5,10.9l5,13.8l-5.4,17l-10.3,11.9l-14.8,8.8l-19.8,2.4l-19-3.1l-16.3-10l-11.4-15.6l-5.1-21.7L393.3,179.8z"/>
	<path d="M512,95.1l-0.1,45.8l25.8-12.1l13.4,1.6l10.7,6.2l6.3,10.2l1.4,12.1l0.4,33.4l-1.1,32.9l-20.9,0.3l-0.2-30.7l-1.4-31
		l0.1-7.6l-4.2-4.3l-3.7-3.9l-5.5-1.6l-7.8,2l-6.1,5.6l-5.7,6.2l-3.1,8.5l0.5,28.4v27.8l-20.9,0.4l0.2-32.4l-0.3-32.6l0.9-32.6
		L489.4,95L512,95.1z"/>
	<path d="M676.4,223.4l-5.1,2.8l-3.8,1l-2.7,1.1l-2,0.5l-6.5-1.5l-4.5-3.9l-3.9-4.5l-2.5-6.4l-8,7.7l-7.3,4.6L623,228l-7.8-0.4
		l-12.2-1l-9.3-6.7l-6.1-9.1l-2.6-11.4l1.6-9.9l7.2-6.6l9.6-4.3l10.4-4.2l10.6-3.1l9.2-3.7l6.7-3.9l2.4-5.6l-1-5.6l-4.7-2.6
		l-5.2-2.2H626l-5.5,0.9l-4.9,2.5l-4.4,3.9l-2,5.6l-22.5,1.3l4.9-14.4l8.6-10l11.6-7.2l14-1.4l14.8,0.8l12,6.3l8.4,9.3l3.6,13.4
		l-0.9,46.4l2.5,2.8l3,2.6h2.1l4.8-2.7L676.4,223.4z M642.1,180.4l-5.1,2.4l-7.6,1.7l-7.9,2.9l-7.1,3.2L609,194l-2.7,4.8l1.2,4.9
		l1.8,4l3.9,1.8l4.1,0.4l12.6-5.3l12.6-12.4L642.1,180.4z"/>
	<path d="M703.3,191.6l1.7,8.6l3.4,5.7l5.6,2.5l6.2,0.5l6.1-0.2l5.5-1.1l3.5-3.6l2.3-5.2l-2.1-4.8l-4.6-3.5l-6.7-1.9l-6.9-3.5
		l-12-3.5l-10.2-6.7l-7.4-8.4l-3.1-11.2l1.8-12l8-8l11.3-4.1l13.7-2l14.6,2l11.6,5.2l7.5,9.6l3.5,13.4l-21.8-0.7l-2.1-5l-3.1-4.1
		l-4.8-1.6l-5.4-0.5l-9.7,2.4l-4,5.7l1.2,4.9l5.4,2.5l5.8,4.2l7.5,2.6l12.1,3.1l10.5,6.2l8.5,7.3l2.2,10.9l-3.2,13.7l-8.3,9.7
		l-13,4.5l-15,3.1l-14.4-3.4l-11.7-6.8l-9.2-10.4l-3.2-16L703.3,191.6z"/>
	<path d="M796.2,95.1l-0.1,45.8l25.8-12.1l13.4,1.6l10.7,6.2l6.3,10.2l1.4,12.1l0.4,33.4l-1.1,32.9l-20.9,0.3l-0.2-30.7l-1.4-31
		l0.1-7.6l-4.2-4.3l-3.7-3.9l-5.5-1.6l-7.8,2l-6.2,5.6l-5.7,6.2l-3.2,8.5l0.5,28.4v27.8l-20.8,0.4l0.2-32.4l-0.3-32.6l0.9-32.6
		L773.5,95L796.2,95.1z"/>
	<path d="M972.6,130.3h22.7l-0.3,10.6l11.5-9.9l12-3.5l6.6,1.1l5.8,3.4l6,4.9l5.3,9.9l7.5-8.7l7.1-5.4l7-4.2l7.6,0.5l13.6,1.3
		l9.4,8.2l5.8,10.8l2.5,12.9l1.3,32l-1,31.9l-21-0.7l-0.2-30.7l0.2-31.4l-1.7-7.8l-3-5.1l-4.5-2.4l-4.8-1.6l-6.5,2.9l-6.2,4l-3.7,7
		l-1.5,8.2l0.1,28.8l-0.9,28.6l-20.8-0.5l-1.5-30.8l1.8-31.4l-1.4-8l-4.5-3.9l-3.4-3l-4,0.4l-8,0.8l-6.5,5.3l-3.7,7.3l-2.8,7.2
		l1.8,28.4l-1.6,28l-20.7-0.2l-1.3-31.1l0.1-31.8L972.6,130.3z"/>
	<path d="M1210.3,223.4l-5.1,2.8l-3.8,1l-2.7,1.1l-2,0.5l-6.5-1.5l-4.6-3.9l-3.9-4.5l-2.5-6.4l-8,7.7l-7.3,4.6l-7.1,3.3l-7.8-0.4
		l-12.2-1l-9.3-6.7l-6.1-9.1l-2.6-11.4l1.6-9.9l7.2-6.6l9.6-4.3l10.4-4.2l10.6-3.1l9.2-3.7l6.7-3.9l2.4-5.6l-1-5.6l-4.7-2.6
		l-5.2-2.2h-5.8l-5.6,0.9l-4.9,2.5l-4.4,3.9l-2,5.6l-22.5,1.3l4.9-14.4l8.6-10l11.6-7.2l14-1.4l14.8,0.8l12,6.3l8.4,9.3l3.6,13.4
		l-0.9,46.4l2.4,2.8l3,2.6h2.1l4.8-2.7L1210.3,223.4z M1176,180.4l-5.2,2.4l-7.6,1.7l-7.9,2.9l-7.1,3.2l-5.3,3.4l-2.7,4.8l1.2,4.9
		l1.8,4l3.9,1.8l4.1,0.4l12.6-5.3l12.6-12.4L1176,180.4z"/>
	<path d="M959.8,223.4l-5.1,2.8l-3.8,1l-2.7,1.1l-2,0.5l-6.5-1.5l-4.6-3.9l-3.9-4.5l-2.5-6.4l-8,7.7l-7.3,4.6l-7.1,3.3l-7.7-0.4
		l-12.3-1L877,220l-6.1-9.1l-2.6-11.4l1.6-9.9l7.2-6.6l9.6-4.3l10.4-4.2l10.6-3.1l9.2-3.7l6.7-3.9l2.4-5.6l-1-5.6l-4.7-2.6l-5.2-2.2
		h-5.8l-5.6,0.9l-4.9,2.5l-4.4,3.9l-2,5.6l-22.5,1.3l4.9-14.4l8.7-10l11.6-7.2l14-1.4l14.8,0.8l12,6.3l8.4,9.3l3.6,13.4l-0.9,46.4
		l2.5,2.8l3,2.6h2.1l4.8-2.7L959.8,223.4z M925.6,180.4l-5.2,2.4l-7.6,1.7l-7.9,2.9l-7.1,3.2l-5.3,3.4l-2.7,4.8l1.2,4.9l1.8,4
		l3.9,1.8l4.1,0.4l12.6-5.3l12.6-12.4L925.6,180.4z"/>
	<path d="M1220.6,130.4h22.4l-0.2,11.6l12.8-10.6l14.1-3.6l13.3,2.5l9.5,6.8l6.5,9.4l1.2,12.5l0.4,33.4l0.2,33.4l-22.9,0.6l0.8-32.2
		l-1-31.7v-6.4l-2.4-5.1l-4.4-2.9l-5.3-0.1l-8.5,1.2l-7.9,4.3l-4.9,7.5l-2.1,8.4l0.4,28.3v28l-21.5,0.1l0.7-31.6l-1-31.8
		L1220.6,130.4z"/>
	<path d="M1338.7,184.5l2.6,9.3l4.5,8.4l7.1,5.1l8.1,1.6l13-4l9-12.7l20.3-0.3l-6.6,14.9l-9.5,11.3l-12.4,7.1l-14,3.5l-18.5-5.1
		l-14.9-10.3l-8.2-16.8l-2.7-19.4l2.9-18.2l8.2-16l14.6-10.1l18.6-3l17.7,3.2l13.4,9.8l9,14.4l2.9,18.3l0.4,8.5l-32.7-0.7
		L1338.7,184.5z M1381.8,167l-2.5-7.7l-4.3-6.6l-6.9-3.6l-8.2-1l-7.4,1.3l-6.7,3.7l-4.4,6.6l-2.7,8.3L1381.8,167z"/>
	<path d="M393.3,367.7l2.9,12.6l5.6,9.8l9.2,5.5l10.9,1.5l10-0.7l8.9-2.6l5.6-6.8l3.5-9.8l-3.9-9.3l-8.7-6.2l-12.5-3.4l-13.3-5.9
		l-14.3-3.9l-11.4-8.5l-7.9-10.6l-3.5-14.1l2.1-15.6l10.4-10.6l14.9-5.5l18.2-2.8l15.6,2l12.2,4.3l8.5,7.3l6,8.7l2.5,10l2.7,9.9
		l-22.3-0.5l-3.2-10.4l-5.5-7.4l-7.5-4.2l-9-2.4h-8.9l-7.1,4.6l-6.8,4l-2,8.6l4.9,8.6l7.9,7l12.3,3.9l13.3,6l13.7,5.2l12.4,6.6
		l7.5,10.9l5,13.8l-5.4,17l-10.3,11.9l-14.8,8.9l-19.8,2.4l-19-3.1l-16.3-10l-11.4-15.6l-5.1-21.7L393.3,367.7z"/>
	<path d="M545.3,352.9l-7.2-13.7l-11-4.5l-8.8,3l-6.2,6.7l-4.3,9.2l-2.2,11.1l1.8,12.1l3.4,11l7,7.4l9,2.7l6.4-2.7l5.8-3.9l2.7-7.3
		l3.2-7.9l22.8,0.5l-4.6,16l-8,13.1l-13,7.3l-16,1.8l-13.1-1.6l-10.5-5.6l-8.4-7.9l-5.6-10.5l-3.6-11.7l-0.4-12.5l2.1-19.4l9.2-15
		l13.4-10.4l18.1-3.7l15.7,2.7l11.5,8.2l7.7,11.6l5.8,14.2L545.3,352.9z"/>
	<path d="M605.3,283.1l-0.1,45.8l25.8-12.1l13.4,1.6l10.7,6.2l6.3,10.2l1.4,12.1l0.4,33.5l-1.1,32.9l-20.9,0.3l-0.2-30.7l-1.4-31
		l0.1-7.6l-4.3-4.2l-3.7-3.9l-5.5-1.5l-7.8,2l-6.2,5.6l-5.7,6.2l-3.2,8.5l0.5,28.4v27.8l-20.8,0.4l0.2-32.4l-0.3-32.6l0.9-32.6
		l-1.3-32.8L605.3,283.1z"/>
	<path d="M677.5,366.3l3.1-19.2l9.1-15.7l13.8-11.2l19.3-4.4l19.3,4.3l13.8,11.4l9.1,15.7l2.1,19.2l-2.6,19.1l-8.5,15.7l-13.6,11.6
		l-19.4,2.9l-19.5-2.9l-13.7-11.5l-8.3-15.9L677.5,366.3z M700.5,366.3l1.4,12l4.2,10l7.5,6.2l9.2,2l9.1-2.1l7.6-6.1l4.3-10l2.6-12
		l-2-12l-4.8-9.9l-7.8-5.8l-9-3.4l-9,3.4l-7.7,5.9l-4.9,9.8L700.5,366.3z"/>
	<path d="M776.9,366.3L780,347l9.1-15.7l13.8-11.2l19.3-4.4l19.3,4.3l13.8,11.4l9.1,15.7l2.1,19.2l-2.6,19.1l-8.5,15.7l-13.6,11.6
		l-19.4,2.9l-19.5-2.9l-13.7-11.5l-8.3-15.9L776.9,366.3z M799.9,366.3l1.4,12l4.2,10l7.5,6.2l9.2,2l9.1-2.1l7.6-6.1l4.3-10l2.6-12
		l-2-12l-4.8-10l-7.8-5.8l-9-3.4l-9,3.4l-7.7,5.9l-5,9.8L799.9,366.3z"/>
	<path d="M904.5,283l-0.1,32.9l-0.5,32.6l0.8,32.6l0.3,33.3l-23.8-0.2l0.8-33.1l-0.4-32.6l1.3-32.6l-0.6-32.4L904.5,283z"/>
	<path d="M980.8,318.2v-17.8l2.3-8.2l4.5-7.1l7.8-4.9l10.4-1.1l3.5,1.1l4.6,0.2l5.3,2.8l7,2l0.3,17.1l-7.1-1.1l-4.6-2.6l-3.2,1
		l-1.2-1.4l-2.7-0.2l-2.3,1.6l-0.5,2.8l-1.5,2.5l-0.8,14.8l17.7-0.5l-0.2,17.1l-17.1,0.5l-0.2,38.6l0.3,38.3l-20.7-0.5l-1.2-37.8
		l0.5-38.5l-15.6,0.4l-0.1-19L980.8,318.2z"/>
	<path d="M1023.8,366.3l3.1-19.2l9.1-15.7l13.8-11.2l19.3-4.4l19.3,4.3l13.8,11.4l9.1,15.7l2.1,19.2l-2.6,19.1l-8.5,15.7l-13.6,11.6
		l-19.4,2.9l-19.5-2.9l-13.7-11.5l-8.3-15.9L1023.8,366.3z M1046.8,366.3l1.4,12l4.2,10l7.5,6.2l9.2,2l9.1-2.1l7.6-6.1l4.3-10
		l2.6-12l-2-12l-4.8-9.9l-7.8-5.8l-9-3.4l-9,3.4l-7.7,5.9l-5,9.8L1046.8,366.3z"/>
	<path d="M1128.4,318.4l16.8-0.1l3.4,12l8.8-10.6l10.4-4l5.6,1l8.7,4.3l0.3,19l-5.9-2.7l-4.2-0.7l-2.6-0.2l-1.3,1l-7.5,0.7l-4.7,5.2
		l-4.2,6l-1.7,7.9l0.2,28.3l0.8,28.7l-22.5-0.4l0.9-31.7l-0.3-31.8L1128.4,318.4z"/>
	<path d="M1266.7,292l-0.1,26.3l17,0.3l0.6,18.4l-16.8-0.1l-0.3,51.5l0.9,6.6l5.1,2.3l4.2,0.8l8-3.3l0.2,17.4l-10.6,4l-8.7-0.7
		l-9-0.6l-6.5-6.2l-4.3-8.1l-2.1-10l-1.2-27.1l0.9-27.1l-12.5-0.7l-0.4-16.9h13.6l-0.6-26.4L1266.7,292z"/>
	<path d="M1320.4,283.1l-0.1,45.8l25.8-12.1l13.4,1.6l10.7,6.2l6.4,10.2l1.4,12.1l0.4,33.5l-1.1,32.9l-20.9,0.3l-0.2-30.7l-1.4-31
		l0.1-7.6l-4.2-4.3l-3.7-3.9l-5.4-1.5l-7.8,2l-6.2,5.6l-5.7,6.2l-3.1,8.5l0.5,28.4v27.8l-20.8,0.4l0.2-32.4l-0.3-32.6l0.9-32.6
		l-1.3-32.8H1320.4z"/>
	<path d="M1415.4,372.5l2.6,9.3l4.5,8.4l7.1,5l8.1,1.6l13-4l9-12.7l20.3-0.3l-6.6,14.9l-9.5,11.4l-12.4,7.1l-14,3.5l-18.5-5.2
		l-14.9-10.3l-8.2-16.8l-2.7-19.4l2.9-18.2l8.2-16l14.6-10.1l18.6-3l17.7,3.2l13.4,9.8l9,14.4l2.9,18.3l0.4,8.5l-32.7-0.7
		L1415.4,372.5z M1458.5,354.9l-2.5-7.7l-4.3-6.5l-6.9-3.6l-8.2-1l-7.5,1.3l-6.7,3.7l-4.4,6.6l-2.7,8.3L1458.5,354.9z"/>
	<path d="M1550.2,282.8l53.1,0.1l16.4,3.1l12.7,6.4l8.3,10.4l2.3,13.1l-4.6,15.2l-10.8,12.8l9.3,6.7l7.1,7.1l4.1,8.6l2.7,9.5
		l-4.7,14.8l-8.1,13.1l-13.9,7.1l-15.3,2.3l-29.2,0.3l-29.9,1l0.7-33.2l1.2-32.6l-0.5-32.6L1550.2,282.8z M1573,334.8h27.4l8.5-1
		l6.2-4.5l3.7-5.7l1.8-6.4l-3.7-11.1l-14.3-3.9l-30.7-0.9L1573,334.8z M1573,394.5l30.4-0.1l8.5-0.6l7.3-4.1l4.9-6.1l2.4-8.4l-1-8.3
		l-6-6.5l-8.6-5.8l-12.3-1.2l-26.2,0.4L1573,394.5z"/>
	<path d="M1690.1,283l-0.1,32.9l-0.5,32.6l0.8,32.6l0.3,33.3l-23.8-0.2l0.8-33.1l-0.4-32.6l1.3-32.6l-0.6-32.4L1690.1,283z"/>
	<path d="M1731.3,282.9l-0.1,22.7l-22.2-0.3l-0.6-22.5L1731.3,282.9z M1731.3,318.3v32l-0.5,31.8l0.7,32.1l-23.7,0.3l0.2-32.5
		l1-31.8l-0.4-31.9H1731.3z"/>
	<path d="M1750.6,318.3h22.4l-0.2,11.6l12.8-10.6l14.1-3.5l13.3,2.5l9.6,6.8l6.5,9.4l1.2,12.5l0.4,33.5l0.2,33.4l-22.9,0.6l0.8-32.2
		l-1-31.7V344l-2.4-5.1l-4.4-2.9l-5.3-0.1l-8.6,1.1l-7.9,4.3l-4.9,7.5l-2.1,8.4l0.4,28.3v28l-21.5,0.1l0.7-31.6l-1-31.8
		L1750.6,318.3z"/>
	<path d="M1930.5,414.1h-22.6l0.3-10.9l-4.6,6.4l-5.6,4.4l-6.3,1.8l-5.9-0.3l-16.7-3.4l-11.5-11.4l-8.1-15.2l-3-19.1l1-19.6
		l8.5-15.5l11.1-11.9l16.9-2.8l6.4,1.5l6.5,2.3l6.8,3.3l4.3,6.4l1.1-46.4l20.2-0.1l-0.3,32.2l0.6,32.6l-0.1,32.6L1930.5,414.1z
		 M1907.5,365.2l-1.4-11.5l-3.4-9.6l-6.6-5.8l-7.7-1.7l-8,1.9l-6.8,6l-3.4,10.1l-2.6,12l1.8,12.3l4.1,9.9l7.1,5.5l7.8,3.6l7.6-3.7
		l6.9-5.6l4.4-9.8l1-12.4L1907.5,365.2z"/>
</g>
</svg>
