<svg xmlns="http://www.w3.org/2000/svg" viewBox="0 0 620.61 362.61">
  <defs>
    <style>
      .ff2f255f-4a97-41fd-b925-ab6abe3cdc47{font-size:30.99px;font-family:Tiresias}
    </style>
  </defs>
  <g id="f68affd0-91c2-49ed-ab82-ac53d3676891" data-name="Ebene 2">
    <g id="bf62ccbd-1117-48d2-adb5-6117f3624e3c" data-name="Ebene 1">
      <path fill="#fff" stroke="#000" stroke-miterlimit="10" d="M.5.5h619.61v361.61H.5z"/>
      <g id="a4612c42-f80a-41d6-9ee7-6f5d86c76532" data-name="2b5Rns">
        <path d="M35.66 97.06v-2.13c4.23-3.14 3.15-7.74 3.32-12 .05-1.34-.26-3 .42-4 3.77-4.93 6.15-11.21 12.88-13.38a6.47 6.47 0 0 0 2.87-2.28c3.35-4.46 6.58-9 9.5-13 3.74.69 6.33 1.76 8.78 1.5a172.88 172.88 0 0 0 19.07-3.12c4.77-1.06 4.78 1.35 4.89 4.83 0 1.41 1.49 3.14 2.77 4.06 1.65 1.17 3.8 1.62 5.68 2.48 2.45 1.1 4.85 2.29 7.53 3.57 1.38-5.42 3.24-6.51 8.17-4.46 4.19 1.74 9.46 1.48 14.18 1.16 6.13-.41 9.75 1.46 8.43 5.95-1.09 3.68.33 6 2.1 8.59s3.9 4.71 4.82 7.42c2.37 7 6.25 12.62 12.44 16.72a5.89 5.89 0 0 1 2.43 3.19c.82 3.46 2.68 3.92 5.8 3 3.86-1.14 7.85-1.87 11.78-2.77v3.19c-2.92 11-10 19.21-18.43 26.34-6.86 5.79-8.83 12.27-5.33 20.91 2.81 6.92-.2 12.49-6.85 16.48-3.66 2.2-7.73 4.37-5.75 10.32.49 1.45-1.85 4-3.13 5.83-.54.78-2.41 1.06-2.46 1.67-.52 6.78-6.53 9.3-10.2 13.66-4.77 5.66-11.54 4-17.34 4.45-4.8.38-2.27-5.75-4.14-8.47a25.07 25.07 0 0 1-2.12-4.28c-1.37-3.14-2.76-6.29-4-9.48s-1.83-6.94-3.7-9.78c-3.42-5.21-2.47-10-.12-15 .79-1.7 1.87-3.69 1.6-5.36-1-6.09-2.64-11.88-7.18-16.63-1.4-1.47-1.91-4.59-1.57-6.77 1-6.76.55-7.75-6.29-9-.66-.12-1.57-.36-1.84-.84-2.79-4.87-6.85-3-10.78-2.22a284.23 284.23 0 0 1-16.87 2.88 7 7 0 0 1-4.37-1.48 47.9 47.9 0 0 1-16.99-21.75zM179.14 159.06c3.23 6.43-1.89 11.53-3.27 17.24-.59 2.49-2.5 4.64-3.54 7.06-1.32 3.07-3.59 6-6.55 3.86-1.79-1.28-2.12-5.49-2-8.34.13-3.11 1.47-6.19 2.43-9.24a6.29 6.29 0 0 1 1.74-3.13c3.52-2.51 7.21-4.83 11.19-7.45z"/>
      </g>
      <path fill="#ecf2f1" d="M340.61 44.61L150.96 95.83l-.35 25.43 73 98.35 70 80 51 22 48-15-24-257-28-5z" opacity=".76"/>
      <path fill="#fff" d="M152.44 96.44c.35-.08 1.67 1.47 2 .06 2 .15 5.16 1.24 6.26 3.44.81 1.62-1.27 6.63 2.55 4.87-2.58 4.49 9.37 6.74 11.37 6.73-4.07 3.95-7.12 7.44-12.66 8.51-1.44.28-7.54 2.23-8.19 1.37-3.92 2-7.57-5.38-9.31-7.11-2.1-2.09-2.34-2-2.34-3.56 0 .44 2.66-6 2.84-5.14 1.28-1.08 4.16-10.94 6.22-7.84.3-.57.51-1.2.75-1.79a.83.83 0 0 0 .51.46"/>
      <path fill="#d98b84" d="M346.37 49.1c4.42-1 4.64 5.76 8.7 6.58 3.87.78 12.38-2 13.28-5.93 3.59.27 2.47 3.77 4.64 4.84 1 .47 8.19-1.44 10.5-1.19 2 .22 4.69 1.65 6.2 1.75 1.71.11 3.27-1 5.14-.83 4.26.46 15.88 7.26 19.05 9.74 4.07 3.19 16 16.42 19.12 19.17 3.47 3 12.41 13.82 14.76 16.39 4.13 4.53 2.87 5.91-.23 10.51-2.83 4.22-8 8.63-10.2 12.6s-.65 7.62-.36 11.67c.36 5-2.21 6.72 3.2 7.76 2.45.48 15.86-3.78 19.19-3.2 2.15.38 2.68 3.13 5.54 1.82-2.07 3.6-2.57 18.59-1.42 20.4 1 1.53 3.62 4.51 4.9 6.12.69.85 2.53.26 3.12 1.13 1.09 1.61 4.35 9 5.26 9.94 4.27 4.49 12.28 10.74 19 13.34 10.74 4.17 22.09 7.21 33.06 10.75l28.91 9.54c10.41 3.44 20.69 2.54 31.69 2.49-24.82 24.09-49.09 48.36-72.36 74-2.31 4.26-26.49 1.23-32.49 3-4.22 1.24-16.65 9.47-19.18 12-5.35 5.4-13.32 2.44-19.92 5-2.32.91-8.91 5.43-11.28 5.49-7.82.21-11.21 1.7-17.29-3.81-5.35-4.86-23.89 4.71-28.08 9.29-1.63 1.77-4.07 7.09-5.91 7.9-1.15.51-18.72-.39-21.93-4.58-1.34.7-12 .55-16.05-1.53-9.34-4.75-18.48-15.67-28.31-18-11.24-2.66-21.54 4.06-26.88-8.87-1.39-3.34 2.43-10.62.94-12.7-1.34-1.85-10.93-1-11.08-1.1-1.91-.75-4.69-4.86-6.66-7.22-2.89-3.47-9.62-25-14-28.55-2.14-1.74-24-21.74-30.78-22.68-10.07-1.4-3.34-14.38-2.66-15.36 1.94-2.81 13 .89 18.06-1.44 10-4.67 2.89-18.65 4-27.74.63-5.24 4.82-19.73 5-22.85.42-6.25 9.72-15 11.89-5.23 1.22-1 4.11-13.06 4.72-15.51.57-2.29 1.65-8.64 2.07-9.86 1.45-4.21 4.89-6.08 7.08-10.09s18.18-12.53 19.75-18.94c.22-.9 3.39-12.77 5.79-17.93s-.31-14.68 4.43-18.17c3.23-2.38 7.92 1.06 10.15.5 3.26-.81 3.44-6.15 8-4.46 2.16.8 4.92 6.76 6.13 8.58 3.22-6.18 5.56-13.07 8.2-19.55 1.16 2.12 2.94 4.47 5.52 5"/>
      <circle cx="349.48" cy="239.5" r="5.47"/>
      <text class="ff2f255f-4a97-41fd-b925-ab6abe3cdc47" transform="translate(367.8 249.28)">
        Shashamane
      </text>
      <text class="ff2f255f-4a97-41fd-b925-ab6abe3cdc47" transform="translate(382.84 209.58)">
        Addis Abeba
      </text>
      <path d="M358.19 192.13h12.77v12.77h-12.77z"/>
    </g>
  </g>
</svg>
