<?xml version="1.0" standalone="no"?>
<!DOCTYPE svg PUBLIC "-//W3C//DTD SVG 20010904//EN"
 "http://www.w3.org/TR/2001/REC-SVG-20010904/DTD/svg10.dtd">
<svg version="1.0" xmlns="http://www.w3.org/2000/svg"
 width="1067.000000pt" height="1067.000000pt" viewBox="0 0 1067.000000 1067.000000"
 preserveAspectRatio="xMidYMid meet">
<metadata>
Created by potrace 1.11, written by Peter Selinger 2001-2013
</metadata>
<g transform="translate(0.000000,1067.000000) scale(0.100000,-0.100000)"
fill="#000000" stroke="none">
<path d="M4610 10237 c0 -1 175 -527 388 -1167 l389 -1166 -196 -201 c-1606
-1647 -2207 -2267 -2213 -2286 -7 -18 -264 -2077 -283 -2257 -3 -30 -30 -253
-61 -494 -53 -422 -54 -440 -37 -456 10 -10 518 -385 1128 -835 611 -451 1161
-857 1224 -903 62 -46 110 -78 106 -71 -12 21 -1073 1666 -1112 1726 l-35 51
464 1098 463 1097 564 636 c310 350 580 656 600 681 20 25 117 137 216 248 99
112 181 207 182 210 6 18 473 2423 473 2436 0 8 -495 376 -1124 835 -1011 738
-1136 828 -1136 818z"/>
<path d="M7037 6234 c-69 -93 -227 -306 -351 -474 -821 -1109 -1712 -2318
-1723 -2340 -7 -14 -74 -332 -149 -706 l-137 -681 89 -116 c49 -64 96 -116
105 -116 9 -1 196 -232 420 -518 222 -285 413 -528 424 -540 l20 -22 543 51
c298 29 539 55 535 59 -5 4 -161 100 -347 213 -186 113 -340 207 -342 208 -1
2 -10 139 -19 306 l-16 302 108 180 c59 98 113 180 120 182 7 2 157 242 334
533 176 292 350 578 385 636 l64 105 16 535 c8 294 13 561 10 594 -3 33 5 445
18 915 12 470 21 857 20 859 -2 2 -59 -73 -127 -165z"/>
</g>
</svg>
